<svg xmlns="http://www.w3.org/2000/svg" xmlns:xlink="http://www.w3.org/1999/xlink" width="940" zoomAndPan="magnify" viewBox="0 0 705 591.000005" height="788" preserveAspectRatio="xMidYMid meet" version="1.0"><path fill="#ee3e54" d="M 103.339844 139.207031 C 102.449219 139.207031 101.566406 139.292969 100.691406 139.46875 C 99.820312 139.640625 98.972656 139.898438 98.148438 140.242188 C 97.328125 140.582031 96.546875 141 95.804688 141.492188 C 95.066406 141.988281 94.378906 142.550781 93.75 143.179688 C 93.121094 143.8125 92.558594 144.496094 92.0625 145.238281 C 91.570312 145.976562 91.152344 146.757812 90.8125 147.582031 C 90.46875 148.40625 90.214844 149.253906 90.039062 150.125 C 89.867188 151 89.777344 151.882812 89.777344 152.773438 C 89.777344 153.664062 89.867188 154.546875 90.039062 155.417969 C 90.214844 156.292969 90.46875 157.140625 90.8125 157.964844 C 91.152344 158.789062 91.570312 159.570312 92.0625 160.308594 C 92.558594 161.050781 93.121094 161.734375 93.75 162.367188 C 94.378906 162.996094 95.066406 163.558594 95.804688 164.050781 C 96.546875 164.546875 97.328125 164.964844 98.148438 165.304688 C 98.972656 165.648438 99.820312 165.902344 100.691406 166.078125 C 101.566406 166.25 102.449219 166.339844 103.339844 166.339844 C 104.230469 166.339844 105.109375 166.25 105.984375 166.078125 C 106.855469 165.902344 107.703125 165.648438 108.527344 165.304688 C 109.351562 164.964844 110.132812 164.546875 110.871094 164.050781 C 111.613281 163.558594 112.296875 162.996094 112.925781 162.367188 C 113.554688 161.734375 114.117188 161.050781 114.613281 160.308594 C 115.109375 159.570312 115.523438 158.789062 115.867188 157.964844 C 116.207031 157.140625 116.464844 156.292969 116.636719 155.417969 C 116.8125 154.546875 116.898438 153.664062 116.898438 152.773438 C 116.898438 151.882812 116.8125 151 116.636719 150.125 C 116.464844 149.253906 116.207031 148.40625 115.867188 147.582031 C 115.523438 146.757812 115.109375 145.976562 114.613281 145.238281 C 114.117188 144.496094 113.554688 143.8125 112.925781 143.179688 C 112.296875 142.550781 111.613281 141.988281 110.871094 141.492188 C 110.132812 141 109.351562 140.582031 108.527344 140.242188 C 107.703125 139.898438 106.855469 139.640625 105.984375 139.46875 C 105.109375 139.292969 104.230469 139.207031 103.339844 139.207031 Z M 103.339844 139.207031 " fill-opacity="1" fill-rule="nonzero"/><path fill="#f1bc19" d="M 537.242188 37.46875 C 536.796875 37.46875 536.355469 37.511719 535.917969 37.597656 C 535.480469 37.683594 535.058594 37.8125 534.644531 37.984375 C 534.234375 38.152344 533.84375 38.363281 533.472656 38.609375 C 533.105469 38.859375 532.761719 39.140625 532.445312 39.453125 C 532.132812 39.769531 531.851562 40.113281 531.601562 40.480469 C 531.355469 40.851562 531.148438 41.242188 530.976562 41.65625 C 530.804688 42.066406 530.675781 42.488281 530.589844 42.925781 C 530.503906 43.363281 530.460938 43.804688 530.460938 44.25 C 530.460938 44.695312 530.503906 45.136719 530.589844 45.574219 C 530.675781 46.011719 530.804688 46.433594 530.976562 46.847656 C 531.148438 47.257812 531.355469 47.648438 531.601562 48.019531 C 531.851562 48.386719 532.132812 48.730469 532.445312 49.046875 C 532.761719 49.359375 533.105469 49.640625 533.472656 49.890625 C 533.84375 50.136719 534.234375 50.347656 534.644531 50.515625 C 535.058594 50.6875 535.480469 50.816406 535.917969 50.902344 C 536.355469 50.988281 536.796875 51.03125 537.242188 51.03125 C 537.683594 51.03125 538.125 50.988281 538.5625 50.902344 C 539 50.816406 539.421875 50.6875 539.835938 50.515625 C 540.246094 50.347656 540.636719 50.136719 541.007812 49.890625 C 541.378906 49.640625 541.71875 49.359375 542.035156 49.046875 C 542.347656 48.730469 542.628906 48.390625 542.878906 48.019531 C 543.125 47.648438 543.332031 47.257812 543.503906 46.847656 C 543.675781 46.433594 543.804688 46.011719 543.890625 45.574219 C 543.976562 45.136719 544.019531 44.695312 544.019531 44.25 C 544.019531 43.804688 543.976562 43.363281 543.890625 42.925781 C 543.804688 42.488281 543.675781 42.066406 543.503906 41.65625 C 543.332031 41.242188 543.125 40.851562 542.878906 40.480469 C 542.628906 40.113281 542.347656 39.769531 542.035156 39.453125 C 541.71875 39.140625 541.378906 38.859375 541.007812 38.609375 C 540.636719 38.363281 540.246094 38.152344 539.835938 37.984375 C 539.421875 37.8125 539 37.683594 538.5625 37.597656 C 538.125 37.511719 537.683594 37.46875 537.242188 37.46875 Z M 537.242188 37.46875 " fill-opacity="1" fill-rule="nonzero"/><path fill="#fce0a2" d="M 354.1875 44.25 C 350.082031 44.25 345.980469 44.351562 341.878906 44.550781 C 337.777344 44.753906 333.6875 45.054688 329.601562 45.457031 C 325.515625 45.859375 321.441406 46.363281 317.378906 46.964844 C 313.320312 47.570312 309.277344 48.269531 305.25 49.070312 C 301.222656 49.875 297.21875 50.773438 293.238281 51.769531 C 289.253906 52.769531 285.300781 53.863281 281.371094 55.054688 C 277.441406 56.25 273.542969 57.535156 269.679688 58.921875 C 265.8125 60.304688 261.984375 61.78125 258.191406 63.351562 C 254.398438 64.925781 250.648438 66.589844 246.9375 68.34375 C 243.226562 70.101562 239.558594 71.945312 235.9375 73.882812 C 232.316406 75.820312 228.746094 77.84375 225.226562 79.953125 C 221.703125 82.066406 218.238281 84.261719 214.824219 86.542969 C 211.410156 88.828125 208.054688 91.191406 204.757812 93.636719 C 201.460938 96.082031 198.222656 98.609375 195.050781 101.214844 C 191.878906 103.820312 188.769531 106.503906 185.726562 109.261719 C 182.6875 112.019531 179.714844 114.851562 176.8125 117.753906 C 173.90625 120.660156 171.078125 123.632812 168.320312 126.675781 C 165.5625 129.71875 162.882812 132.828125 160.277344 136.003906 C 157.675781 139.175781 155.148438 142.414062 152.703125 145.714844 C 150.257812 149.011719 147.894531 152.367188 145.613281 155.785156 C 143.332031 159.199219 141.136719 162.667969 139.027344 166.191406 C 136.917969 169.714844 134.894531 173.285156 132.957031 176.910156 C 131.023438 180.53125 129.179688 184.199219 127.421875 187.910156 C 125.667969 191.625 124.003906 195.378906 122.433594 199.171875 C 120.863281 202.964844 119.386719 206.796875 118.003906 210.664062 C 116.621094 214.53125 115.332031 218.429688 114.140625 222.359375 C 112.949219 226.289062 111.855469 230.246094 110.855469 234.230469 C 109.859375 238.214844 108.960938 242.222656 108.160156 246.25 C 107.359375 250.277344 106.65625 254.324219 106.054688 258.386719 C 105.453125 262.449219 104.949219 266.523438 104.546875 270.613281 C 104.144531 274.699219 103.84375 278.792969 103.640625 282.894531 C 103.4375 286.996094 103.339844 291.101562 103.339844 295.210938 C 103.339844 299.316406 103.4375 303.421875 103.640625 307.523438 C 103.84375 311.625 104.144531 315.722656 104.546875 319.808594 C 104.949219 323.894531 105.453125 327.96875 106.054688 332.035156 C 106.65625 336.097656 107.359375 340.140625 108.160156 344.167969 C 108.960938 348.199219 109.859375 352.203125 110.855469 356.1875 C 111.855469 360.171875 112.949219 364.128906 114.140625 368.058594 C 115.332031 371.988281 116.621094 375.886719 118.003906 379.753906 C 119.386719 383.621094 120.863281 387.453125 122.433594 391.246094 C 124.003906 395.042969 125.667969 398.796875 127.421875 402.507812 C 129.179688 406.222656 131.023438 409.890625 132.957031 413.511719 C 134.894531 417.132812 136.917969 420.707031 139.027344 424.230469 C 141.136719 427.75 143.332031 431.21875 145.613281 434.636719 C 147.894531 438.050781 150.257812 441.40625 152.703125 444.707031 C 155.148438 448.003906 157.675781 451.242188 160.277344 454.417969 C 162.882812 457.59375 165.5625 460.699219 168.320312 463.742188 C 171.078125 466.789062 173.90625 469.761719 176.8125 472.664062 C 179.714844 475.570312 182.6875 478.402344 185.726562 481.160156 C 188.769531 483.917969 191.878906 486.597656 195.050781 489.203125 C 198.222656 491.808594 201.460938 494.335938 204.757812 496.78125 C 208.054688 499.230469 211.410156 501.59375 214.824219 503.875 C 218.238281 506.15625 221.703125 508.355469 225.226562 510.464844 C 228.746094 512.578125 232.316406 514.601562 235.9375 516.535156 C 239.558594 518.472656 243.226562 520.320312 246.9375 522.074219 C 250.648438 523.832031 254.398438 525.496094 258.191406 527.066406 C 261.984375 528.636719 265.8125 530.117188 269.679688 531.5 C 273.542969 532.882812 277.441406 534.171875 281.371094 535.363281 C 285.300781 536.554688 289.253906 537.652344 293.238281 538.648438 C 297.21875 539.648438 301.222656 540.546875 305.25 541.347656 C 309.277344 542.148438 313.320312 542.851562 317.378906 543.453125 C 321.441406 544.054688 325.515625 544.558594 329.601562 544.960938 C 333.6875 545.363281 337.777344 545.664062 341.878906 545.867188 C 345.980469 546.070312 350.082031 546.167969 354.1875 546.167969 C 358.292969 546.167969 362.394531 546.070312 366.496094 545.867188 C 370.597656 545.664062 374.691406 545.363281 378.777344 544.960938 C 382.859375 544.558594 386.933594 544.054688 390.996094 543.453125 C 395.054688 542.851562 399.101562 542.148438 403.125 541.347656 C 407.152344 540.546875 411.15625 539.648438 415.140625 538.648438 C 419.121094 537.652344 423.078125 536.554688 427.003906 535.363281 C 430.933594 534.171875 434.832031 532.882812 438.695312 531.5 C 442.5625 530.117188 446.390625 528.636719 450.183594 527.066406 C 453.976562 525.496094 457.730469 523.832031 461.441406 522.074219 C 465.152344 520.320312 468.816406 518.472656 472.4375 516.535156 C 476.058594 514.601562 479.628906 512.578125 483.148438 510.464844 C 486.671875 508.355469 490.140625 506.15625 493.550781 503.875 C 496.964844 501.59375 500.320312 499.230469 503.617188 496.78125 C 506.917969 494.335938 510.152344 491.808594 513.324219 489.203125 C 516.5 486.597656 519.605469 483.917969 522.648438 481.160156 C 525.691406 478.402344 528.664062 475.570312 531.566406 472.664062 C 534.46875 469.761719 537.296875 466.789062 540.054688 463.742188 C 542.8125 460.699219 545.492188 457.59375 548.097656 454.417969 C 550.703125 451.242188 553.226562 448.003906 555.671875 444.707031 C 558.117188 441.40625 560.480469 438.050781 562.761719 434.636719 C 565.042969 431.21875 567.238281 427.75 569.347656 424.230469 C 571.460938 420.707031 573.480469 417.132812 575.417969 413.511719 C 577.351562 409.890625 579.199219 406.222656 580.953125 402.507812 C 582.707031 398.796875 584.371094 395.042969 585.941406 391.246094 C 587.515625 387.453125 588.992188 383.621094 590.375 379.753906 C 591.757812 375.886719 593.042969 371.988281 594.234375 368.058594 C 595.425781 364.128906 596.523438 360.171875 597.519531 356.1875 C 598.515625 352.203125 599.417969 348.199219 600.21875 344.167969 C 601.019531 340.140625 601.71875 336.097656 602.324219 332.035156 C 602.925781 327.96875 603.425781 323.894531 603.828125 319.808594 C 604.230469 315.722656 604.535156 311.625 604.734375 307.523438 C 604.9375 303.421875 605.039062 299.316406 605.039062 295.210938 C 605.039062 291.101562 604.9375 286.996094 604.734375 282.894531 C 604.535156 278.792969 604.230469 274.699219 603.828125 270.613281 C 603.425781 266.523438 602.925781 262.449219 602.324219 258.386719 C 601.71875 254.324219 601.019531 250.277344 600.21875 246.25 C 599.417969 242.222656 598.515625 238.214844 597.519531 234.230469 C 596.523438 230.246094 595.425781 226.289062 594.234375 222.359375 C 593.042969 218.429688 591.757812 214.53125 590.375 210.664062 C 588.992188 206.796875 587.515625 202.964844 585.941406 199.171875 C 584.371094 195.378906 582.707031 191.625 580.953125 187.910156 C 579.199219 184.199219 577.351562 180.53125 575.417969 176.910156 C 573.480469 173.285156 571.460938 169.714844 569.347656 166.191406 C 567.238281 162.667969 565.042969 159.199219 562.761719 155.785156 C 560.480469 152.367188 558.117188 149.011719 555.671875 145.714844 C 553.226562 142.414062 550.703125 139.175781 548.097656 136.003906 C 545.492188 132.828125 542.8125 129.71875 540.054688 126.675781 C 537.296875 123.632812 534.46875 120.660156 531.566406 117.753906 C 528.664062 114.851562 525.691406 112.019531 522.648438 109.261719 C 519.605469 106.503906 516.5 103.820312 513.324219 101.214844 C 510.152344 98.609375 506.917969 96.082031 503.617188 93.636719 C 500.320312 91.191406 496.964844 88.828125 493.550781 86.542969 C 490.140625 84.261719 486.671875 82.066406 483.148438 79.953125 C 479.628906 77.84375 476.058594 75.820312 472.4375 73.882812 C 468.816406 71.945312 465.152344 70.101562 461.441406 68.34375 C 457.730469 66.589844 453.976562 64.925781 450.183594 63.351562 C 446.390625 61.78125 442.5625 60.304688 438.695312 58.921875 C 434.832031 57.535156 430.933594 56.25 427.003906 55.054688 C 423.078125 53.863281 419.121094 52.769531 415.140625 51.769531 C 411.15625 50.773438 407.152344 49.875 403.125 49.070312 C 399.101562 48.269531 395.054688 47.570312 390.996094 46.964844 C 386.933594 46.363281 382.859375 45.859375 378.777344 45.457031 C 374.691406 45.054688 370.597656 44.753906 366.496094 44.550781 C 362.394531 44.351562 358.292969 44.25 354.1875 44.25 Z M 354.1875 44.25 " fill-opacity="1" fill-rule="nonzero"/><path fill="#f1bc19" d="M 577.917969 30.683594 C 577.03125 30.683594 576.144531 30.726562 575.261719 30.816406 C 574.375 30.902344 573.5 31.03125 572.628906 31.207031 C 571.757812 31.378906 570.894531 31.59375 570.046875 31.851562 C 569.195312 32.109375 568.359375 32.410156 567.539062 32.75 C 566.71875 33.089844 565.917969 33.46875 565.136719 33.886719 C 564.351562 34.308594 563.589844 34.761719 562.851562 35.257812 C 562.113281 35.75 561.402344 36.28125 560.714844 36.84375 C 560.027344 37.40625 559.371094 38.003906 558.742188 38.632812 C 558.113281 39.257812 557.519531 39.917969 556.957031 40.605469 C 556.390625 41.289062 555.863281 42.003906 555.371094 42.742188 C 554.875 43.480469 554.421875 44.242188 554 45.027344 C 553.582031 45.808594 553.203125 46.613281 552.863281 47.433594 C 552.523438 48.253906 552.226562 49.089844 551.96875 49.941406 C 551.710938 50.789062 551.496094 51.652344 551.320312 52.523438 C 551.148438 53.394531 551.015625 54.273438 550.929688 55.15625 C 550.84375 56.039062 550.800781 56.925781 550.800781 57.816406 C 550.800781 58.703125 550.84375 59.589844 550.929688 60.476562 C 551.015625 61.359375 551.148438 62.238281 551.320312 63.109375 C 551.496094 63.980469 551.710938 64.839844 551.96875 65.691406 C 552.226562 66.542969 552.523438 67.378906 552.863281 68.199219 C 553.203125 69.019531 553.582031 69.820312 554 70.605469 C 554.421875 71.386719 554.875 72.148438 555.371094 72.886719 C 555.863281 73.628906 556.390625 74.339844 556.957031 75.027344 C 557.519531 75.714844 558.113281 76.371094 558.742188 77 C 559.371094 77.628906 560.027344 78.222656 560.714844 78.789062 C 561.402344 79.351562 562.113281 79.878906 562.851562 80.375 C 563.589844 80.867188 564.351562 81.324219 565.136719 81.742188 C 565.917969 82.160156 566.71875 82.542969 567.539062 82.882812 C 568.359375 83.222656 569.195312 83.519531 570.046875 83.777344 C 570.894531 84.035156 571.757812 84.25 572.628906 84.425781 C 573.5 84.597656 574.375 84.730469 575.261719 84.816406 C 576.144531 84.902344 577.03125 84.945312 577.917969 84.945312 C 578.808594 84.945312 579.691406 84.902344 580.578125 84.816406 C 581.460938 84.730469 582.339844 84.597656 583.210938 84.425781 C 584.082031 84.25 584.941406 84.035156 585.789062 83.777344 C 586.640625 83.519531 587.476562 83.222656 588.296875 82.882812 C 589.117188 82.542969 589.917969 82.160156 590.703125 81.742188 C 591.484375 81.324219 592.246094 80.867188 592.984375 80.375 C 593.722656 79.878906 594.4375 79.351562 595.121094 78.789062 C 595.808594 78.222656 596.464844 77.628906 597.09375 77 C 597.722656 76.371094 598.316406 75.714844 598.882812 75.027344 C 599.445312 74.339844 599.972656 73.628906 600.46875 72.886719 C 600.960938 72.148438 601.417969 71.386719 601.835938 70.605469 C 602.253906 69.820312 602.632812 69.019531 602.972656 68.199219 C 603.3125 67.378906 603.613281 66.542969 603.871094 65.691406 C 604.128906 64.839844 604.34375 63.980469 604.515625 63.109375 C 604.691406 62.238281 604.820312 61.359375 604.90625 60.476562 C 604.992188 59.589844 605.039062 58.703125 605.039062 57.816406 C 605.039062 56.925781 604.992188 56.039062 604.90625 55.15625 C 604.820312 54.273438 604.691406 53.394531 604.515625 52.523438 C 604.34375 51.652344 604.128906 50.789062 603.871094 49.941406 C 603.613281 49.089844 603.3125 48.253906 602.972656 47.433594 C 602.632812 46.613281 602.253906 45.808594 601.835938 45.027344 C 601.417969 44.242188 600.960938 43.480469 600.46875 42.742188 C 599.972656 42.003906 599.445312 41.289062 598.882812 40.605469 C 598.316406 39.917969 597.722656 39.257812 597.09375 38.632812 C 596.464844 38.003906 595.808594 37.40625 595.121094 36.84375 C 594.4375 36.28125 593.722656 35.75 592.984375 35.257812 C 592.246094 34.761719 591.484375 34.308594 590.703125 33.886719 C 589.917969 33.46875 589.117188 33.089844 588.296875 32.75 C 587.476562 32.410156 586.640625 32.109375 585.789062 31.851562 C 584.941406 31.59375 584.082031 31.378906 583.210938 31.207031 C 582.339844 31.03125 581.460938 30.902344 580.578125 30.816406 C 579.691406 30.726562 578.808594 30.683594 577.917969 30.683594 Z M 577.917969 30.683594 " fill-opacity="1" fill-rule="nonzero"/><path fill="#ee3e54" d="M 605.039062 105.292969 C 604.148438 105.292969 603.265625 105.382812 602.390625 105.554688 C 601.519531 105.730469 600.671875 105.984375 599.847656 106.328125 C 599.027344 106.667969 598.246094 107.085938 597.503906 107.582031 C 596.765625 108.074219 596.078125 108.636719 595.449219 109.269531 C 594.820312 109.898438 594.257812 110.582031 593.761719 111.324219 C 593.269531 112.0625 592.851562 112.84375 592.511719 113.667969 C 592.167969 114.492188 591.914062 115.339844 591.738281 116.214844 C 591.566406 117.085938 591.476562 117.96875 591.476562 118.859375 C 591.476562 119.75 591.566406 120.632812 591.738281 121.507812 C 591.914062 122.378906 592.167969 123.226562 592.511719 124.050781 C 592.851562 124.875 593.269531 125.65625 593.761719 126.394531 C 594.257812 127.136719 594.820312 127.820312 595.449219 128.453125 C 596.078125 129.082031 596.765625 129.644531 597.503906 130.140625 C 598.246094 130.632812 599.027344 131.050781 599.847656 131.390625 C 600.671875 131.734375 601.519531 131.992188 602.390625 132.164062 C 603.265625 132.339844 604.148438 132.425781 605.039062 132.425781 C 605.929688 132.425781 606.808594 132.339844 607.683594 132.164062 C 608.554688 131.992188 609.402344 131.734375 610.226562 131.390625 C 611.050781 131.050781 611.832031 130.632812 612.570312 130.140625 C 613.3125 129.644531 613.996094 129.082031 614.625 128.453125 C 615.253906 127.820312 615.816406 127.136719 616.3125 126.394531 C 616.804688 125.65625 617.222656 124.875 617.566406 124.050781 C 617.90625 123.226562 618.164062 122.378906 618.335938 121.507812 C 618.511719 120.632812 618.597656 119.75 618.597656 118.859375 C 618.597656 117.96875 618.511719 117.085938 618.335938 116.214844 C 618.164062 115.339844 617.90625 114.492188 617.566406 113.667969 C 617.222656 112.84375 616.804688 112.0625 616.3125 111.324219 C 615.816406 110.582031 615.253906 109.898438 614.625 109.269531 C 613.996094 108.636719 613.3125 108.074219 612.570312 107.582031 C 611.832031 107.085938 611.050781 106.667969 610.226562 106.328125 C 609.402344 105.984375 608.554688 105.730469 607.683594 105.554688 C 606.808594 105.382812 605.929688 105.292969 605.039062 105.292969 Z M 605.039062 105.292969 " fill-opacity="1" fill-rule="nonzero"/><path fill="#fbcd59" d="M 564.359375 457.996094 C 563.46875 457.996094 562.585938 458.082031 561.714844 458.253906 C 560.839844 458.429688 559.992188 458.6875 559.171875 459.027344 C 558.347656 459.367188 557.566406 459.785156 556.824219 460.28125 C 556.085938 460.777344 555.402344 461.339844 554.769531 461.96875 C 554.140625 462.597656 553.578125 463.28125 553.085938 464.023438 C 552.589844 464.765625 552.171875 465.546875 551.832031 466.367188 C 551.492188 467.191406 551.234375 468.039062 551.058594 468.914062 C 550.886719 469.785156 550.800781 470.667969 550.800781 471.558594 C 550.800781 472.449219 550.886719 473.332031 551.058594 474.207031 C 551.234375 475.078125 551.492188 475.929688 551.832031 476.75 C 552.171875 477.574219 552.589844 478.355469 553.085938 479.097656 C 553.578125 479.835938 554.140625 480.523438 554.769531 481.152344 C 555.402344 481.78125 556.085938 482.34375 556.824219 482.839844 C 557.566406 483.332031 558.347656 483.75 559.171875 484.09375 C 559.992188 484.433594 560.839844 484.691406 561.714844 484.863281 C 562.585938 485.039062 563.46875 485.125 564.359375 485.125 C 565.25 485.125 566.132812 485.039062 567.003906 484.863281 C 567.878906 484.691406 568.726562 484.433594 569.546875 484.09375 C 570.371094 483.75 571.152344 483.332031 571.890625 482.839844 C 572.632812 482.34375 573.316406 481.78125 573.945312 481.152344 C 574.578125 480.523438 575.140625 479.835938 575.632812 479.097656 C 576.128906 478.355469 576.546875 477.574219 576.886719 476.75 C 577.226562 475.929688 577.484375 475.078125 577.65625 474.207031 C 577.832031 473.332031 577.917969 472.449219 577.917969 471.558594 C 577.917969 470.667969 577.832031 469.785156 577.65625 468.914062 C 577.484375 468.039062 577.226562 467.191406 576.886719 466.367188 C 576.546875 465.546875 576.128906 464.765625 575.632812 464.023438 C 575.140625 463.28125 574.578125 462.597656 573.945312 461.96875 C 573.316406 461.339844 572.632812 460.777344 571.890625 460.28125 C 571.152344 459.785156 570.371094 459.367188 569.546875 459.027344 C 568.726562 458.6875 567.878906 458.429688 567.003906 458.253906 C 566.132812 458.082031 565.25 457.996094 564.359375 457.996094 Z M 116.898438 356.253906 C 116.011719 356.253906 115.125 356.296875 114.238281 356.386719 C 113.355469 356.472656 112.476562 356.601562 111.605469 356.777344 C 110.734375 356.949219 109.875 357.164062 109.027344 357.421875 C 108.175781 357.679688 107.339844 357.980469 106.519531 358.320312 C 105.699219 358.660156 104.898438 359.039062 104.113281 359.457031 C 103.332031 359.875 102.570312 360.332031 101.832031 360.828125 C 101.09375 361.320312 100.378906 361.847656 99.695312 362.414062 C 99.007812 362.976562 98.351562 363.570312 97.722656 364.199219 C 97.09375 364.828125 96.5 365.488281 95.933594 366.171875 C 95.371094 366.859375 94.84375 367.574219 94.347656 368.3125 C 93.855469 369.050781 93.398438 369.8125 92.980469 370.59375 C 92.5625 371.378906 92.183594 372.179688 91.84375 373.003906 C 91.503906 373.824219 91.203125 374.660156 90.945312 375.507812 C 90.6875 376.359375 90.472656 377.21875 90.300781 378.09375 C 90.128906 378.964844 89.996094 379.839844 89.910156 380.726562 C 89.824219 381.609375 89.777344 382.496094 89.777344 383.386719 C 89.777344 384.273438 89.824219 385.160156 89.910156 386.042969 C 89.996094 386.929688 90.128906 387.804688 90.300781 388.679688 C 90.472656 389.550781 90.6875 390.410156 90.945312 391.261719 C 91.203125 392.109375 91.503906 392.945312 91.84375 393.765625 C 92.183594 394.589844 92.5625 395.390625 92.980469 396.175781 C 93.398438 396.957031 93.855469 397.71875 94.347656 398.457031 C 94.84375 399.195312 95.371094 399.910156 95.933594 400.597656 C 96.5 401.285156 97.09375 401.941406 97.722656 402.570312 C 98.351562 403.199219 99.007812 403.792969 99.695312 404.355469 C 100.378906 404.921875 101.09375 405.449219 101.832031 405.941406 C 102.570312 406.4375 103.332031 406.894531 104.113281 407.3125 C 104.898438 407.730469 105.699219 408.109375 106.519531 408.449219 C 107.339844 408.789062 108.175781 409.089844 109.027344 409.347656 C 109.875 409.605469 110.734375 409.820312 111.605469 409.996094 C 112.476562 410.167969 113.355469 410.296875 114.238281 410.386719 C 115.125 410.472656 116.011719 410.515625 116.898438 410.515625 C 117.785156 410.515625 118.671875 410.472656 119.554688 410.386719 C 120.441406 410.296875 121.316406 410.167969 122.1875 409.996094 C 123.058594 409.820312 123.921875 409.605469 124.769531 409.347656 C 125.621094 409.089844 126.457031 408.789062 127.277344 408.449219 C 128.097656 408.109375 128.898438 407.730469 129.683594 407.3125 C 130.464844 406.894531 131.226562 406.4375 131.964844 405.941406 C 132.703125 405.449219 133.414062 404.921875 134.101562 404.355469 C 134.789062 403.792969 135.445312 403.199219 136.074219 402.570312 C 136.703125 401.941406 137.296875 401.285156 137.859375 400.597656 C 138.425781 399.910156 138.953125 399.195312 139.445312 398.457031 C 139.941406 397.71875 140.394531 396.957031 140.816406 396.175781 C 141.234375 395.390625 141.613281 394.589844 141.953125 393.765625 C 142.292969 392.945312 142.589844 392.109375 142.847656 391.261719 C 143.105469 390.410156 143.324219 389.550781 143.496094 388.679688 C 143.667969 387.804688 143.800781 386.929688 143.886719 386.042969 C 143.972656 385.160156 144.015625 384.273438 144.015625 383.386719 C 144.015625 382.496094 143.972656 381.609375 143.886719 380.726562 C 143.800781 379.839844 143.667969 378.964844 143.496094 378.09375 C 143.324219 377.21875 143.105469 376.359375 142.847656 375.507812 C 142.589844 374.660156 142.292969 373.824219 141.953125 373.003906 C 141.613281 372.179688 141.234375 371.378906 140.816406 370.59375 C 140.394531 369.8125 139.941406 369.050781 139.445312 368.3125 C 138.953125 367.574219 138.425781 366.859375 137.859375 366.171875 C 137.296875 365.488281 136.703125 364.828125 136.074219 364.199219 C 135.445312 363.570312 134.789062 362.976562 134.101562 362.414062 C 133.414062 361.847656 132.703125 361.320312 131.964844 360.828125 C 131.226562 360.332031 130.464844 359.875 129.683594 359.457031 C 128.898438 359.039062 128.097656 358.660156 127.277344 358.320312 C 126.457031 357.980469 125.621094 357.679688 124.769531 357.421875 C 123.921875 357.164062 123.058594 356.949219 122.1875 356.777344 C 121.316406 356.601562 120.441406 356.472656 119.554688 356.386719 C 118.671875 356.296875 117.785156 356.253906 116.898438 356.253906 Z M 116.898438 356.253906 " fill-opacity="1" fill-rule="nonzero"/><path fill="#ee3e54" d="M 184.695312 532.605469 C 183.804688 532.605469 182.921875 532.691406 182.050781 532.863281 C 181.175781 533.039062 180.328125 533.296875 179.507812 533.636719 C 178.683594 533.976562 177.902344 534.394531 177.160156 534.890625 C 176.421875 535.386719 175.738281 535.949219 175.105469 536.578125 C 174.476562 537.207031 173.914062 537.890625 173.421875 538.632812 C 172.925781 539.375 172.507812 540.15625 172.167969 540.976562 C 171.828125 541.800781 171.570312 542.648438 171.394531 543.523438 C 171.222656 544.398438 171.136719 545.277344 171.136719 546.167969 C 171.136719 547.058594 171.222656 547.941406 171.394531 548.816406 C 171.570312 549.691406 171.828125 550.539062 172.167969 551.359375 C 172.507812 552.183594 172.925781 552.964844 173.421875 553.707031 C 173.914062 554.445312 174.476562 555.132812 175.105469 555.761719 C 175.738281 556.390625 176.421875 556.953125 177.160156 557.449219 C 177.902344 557.945312 178.683594 558.363281 179.507812 558.703125 C 180.328125 559.042969 181.175781 559.300781 182.050781 559.472656 C 182.921875 559.648438 183.804688 559.734375 184.695312 559.734375 C 185.585938 559.734375 186.46875 559.648438 187.339844 559.472656 C 188.214844 559.300781 189.0625 559.042969 189.882812 558.703125 C 190.707031 558.363281 191.488281 557.945312 192.226562 557.449219 C 192.96875 556.953125 193.652344 556.390625 194.28125 555.761719 C 194.914062 555.132812 195.476562 554.445312 195.96875 553.707031 C 196.464844 552.964844 196.882812 552.183594 197.222656 551.359375 C 197.5625 550.539062 197.820312 549.691406 197.992188 548.816406 C 198.167969 547.941406 198.253906 547.058594 198.253906 546.167969 C 198.253906 545.277344 198.167969 544.398438 197.992188 543.523438 C 197.820312 542.648438 197.5625 541.800781 197.222656 540.976562 C 196.882812 540.15625 196.464844 539.375 195.96875 538.632812 C 195.476562 537.890625 194.914062 537.207031 194.28125 536.578125 C 193.652344 535.949219 192.96875 535.386719 192.226562 534.890625 C 191.488281 534.394531 190.707031 533.976562 189.882812 533.636719 C 189.0625 533.296875 188.214844 533.039062 187.339844 532.863281 C 186.46875 532.691406 185.585938 532.605469 184.695312 532.605469 Z M 184.695312 532.605469 " fill-opacity="1" fill-rule="nonzero"/><path fill="#ffffff" d="M 140.628906 301.992188 C 140.070312 301.992188 139.519531 302.019531 138.964844 302.074219 C 138.414062 302.128906 137.863281 302.210938 137.320312 302.320312 C 136.777344 302.425781 136.238281 302.5625 135.707031 302.722656 C 135.175781 302.882812 134.652344 303.070312 134.140625 303.285156 C 133.628906 303.496094 133.125 303.734375 132.636719 303.996094 C 132.148438 304.257812 131.671875 304.542969 131.210938 304.851562 C 130.75 305.160156 130.304688 305.488281 129.875 305.839844 C 129.445312 306.195312 129.035156 306.566406 128.640625 306.960938 C 128.25 307.351562 127.878906 307.761719 127.523438 308.191406 C 127.171875 308.621094 126.84375 309.066406 126.535156 309.527344 C 126.226562 309.992188 125.941406 310.464844 125.679688 310.957031 C 125.417969 311.445312 125.179688 311.945312 124.96875 312.460938 C 124.753906 312.972656 124.570312 313.496094 124.40625 314.027344 C 124.246094 314.558594 124.113281 315.097656 124.003906 315.640625 C 123.894531 316.1875 123.8125 316.734375 123.757812 317.289062 C 123.703125 317.839844 123.675781 318.394531 123.675781 318.949219 C 123.675781 319.503906 123.703125 320.058594 123.757812 320.613281 C 123.8125 321.164062 123.894531 321.710938 124.003906 322.257812 C 124.113281 322.800781 124.246094 323.339844 124.40625 323.871094 C 124.570312 324.402344 124.753906 324.925781 124.96875 325.4375 C 125.179688 325.953125 125.417969 326.453125 125.679688 326.941406 C 125.941406 327.433594 126.226562 327.90625 126.535156 328.371094 C 126.84375 328.832031 127.171875 329.277344 127.523438 329.707031 C 127.878906 330.136719 128.25 330.546875 128.640625 330.941406 C 129.035156 331.332031 129.445312 331.703125 129.875 332.058594 C 130.304688 332.410156 130.75 332.738281 131.210938 333.046875 C 131.671875 333.355469 132.148438 333.640625 132.636719 333.902344 C 133.125 334.164062 133.628906 334.402344 134.140625 334.617188 C 134.652344 334.828125 135.175781 335.015625 135.707031 335.175781 C 136.238281 335.335938 136.777344 335.472656 137.320312 335.582031 C 137.863281 335.6875 138.414062 335.769531 138.964844 335.824219 C 139.519531 335.878906 140.070312 335.90625 140.628906 335.90625 C 141.183594 335.90625 141.734375 335.878906 142.289062 335.824219 C 142.839844 335.769531 143.390625 335.6875 143.933594 335.582031 C 144.476562 335.472656 145.015625 335.335938 145.546875 335.175781 C 146.078125 335.015625 146.601562 334.828125 147.113281 334.617188 C 147.625 334.402344 148.128906 334.164062 148.617188 333.902344 C 149.105469 333.640625 149.582031 333.355469 150.042969 333.046875 C 150.503906 332.738281 150.949219 332.410156 151.378906 332.058594 C 151.808594 331.703125 152.21875 331.332031 152.613281 330.941406 C 153.003906 330.546875 153.375 330.136719 153.730469 329.707031 C 154.082031 329.277344 154.410156 328.832031 154.71875 328.371094 C 155.027344 327.90625 155.3125 327.433594 155.574219 326.941406 C 155.835938 326.453125 156.074219 325.953125 156.285156 325.4375 C 156.5 324.925781 156.683594 324.402344 156.847656 323.871094 C 157.007812 323.339844 157.140625 322.800781 157.25 322.257812 C 157.359375 321.710938 157.441406 321.164062 157.496094 320.613281 C 157.550781 320.058594 157.578125 319.503906 157.578125 318.949219 C 157.578125 318.394531 157.550781 317.839844 157.496094 317.289062 C 157.441406 316.734375 157.359375 316.1875 157.25 315.640625 C 157.140625 315.097656 157.007812 314.558594 156.847656 314.027344 C 156.683594 313.496094 156.5 312.972656 156.285156 312.460938 C 156.074219 311.945312 155.835938 311.445312 155.574219 310.957031 C 155.3125 310.464844 155.027344 309.992188 154.71875 309.527344 C 154.410156 309.066406 154.082031 308.621094 153.730469 308.191406 C 153.375 307.761719 153.003906 307.351562 152.613281 306.960938 C 152.21875 306.566406 151.808594 306.195312 151.378906 305.839844 C 150.949219 305.488281 150.503906 305.160156 150.042969 304.851562 C 149.582031 304.542969 149.105469 304.257812 148.617188 303.996094 C 148.128906 303.734375 147.625 303.496094 147.113281 303.285156 C 146.601562 303.070312 146.078125 302.882812 145.546875 302.722656 C 145.015625 302.5625 144.476562 302.425781 143.933594 302.320312 C 143.390625 302.210938 142.839844 302.128906 142.289062 302.074219 C 141.734375 302.019531 141.183594 301.992188 140.628906 301.992188 Z M 140.628906 301.992188 " fill-opacity="1" fill-rule="nonzero"/><path fill="#f1bc19" d="M 157.578125 403.734375 C 157.132812 403.734375 156.691406 403.777344 156.253906 403.863281 C 155.816406 403.949219 155.394531 404.078125 154.980469 404.25 C 154.570312 404.417969 154.179688 404.628906 153.808594 404.875 C 153.441406 405.125 153.097656 405.40625 152.78125 405.71875 C 152.46875 406.035156 152.1875 406.378906 151.9375 406.746094 C 151.691406 407.117188 151.484375 407.507812 151.3125 407.921875 C 151.140625 408.332031 151.015625 408.753906 150.925781 409.191406 C 150.839844 409.628906 150.796875 410.070312 150.796875 410.515625 C 150.796875 410.960938 150.839844 411.402344 150.925781 411.839844 C 151.015625 412.277344 151.140625 412.699219 151.3125 413.109375 C 151.484375 413.523438 151.691406 413.914062 151.9375 414.285156 C 152.1875 414.652344 152.46875 414.996094 152.78125 415.3125 C 153.097656 415.625 153.441406 415.90625 153.808594 416.15625 C 154.179688 416.402344 154.570312 416.613281 154.980469 416.78125 C 155.394531 416.953125 155.816406 417.082031 156.253906 417.167969 C 156.691406 417.253906 157.132812 417.296875 157.578125 417.296875 C 158.019531 417.296875 158.460938 417.253906 158.898438 417.167969 C 159.335938 417.082031 159.757812 416.953125 160.171875 416.78125 C 160.582031 416.613281 160.972656 416.402344 161.34375 416.15625 C 161.714844 415.90625 162.054688 415.625 162.371094 415.3125 C 162.683594 414.996094 162.964844 414.652344 163.214844 414.285156 C 163.460938 413.914062 163.667969 413.523438 163.839844 413.109375 C 164.011719 412.699219 164.140625 412.277344 164.226562 411.839844 C 164.3125 411.402344 164.355469 410.960938 164.355469 410.515625 C 164.355469 410.070312 164.3125 409.628906 164.226562 409.191406 C 164.140625 408.753906 164.011719 408.332031 163.839844 407.921875 C 163.667969 407.507812 163.460938 407.117188 163.214844 406.746094 C 162.964844 406.378906 162.683594 406.035156 162.371094 405.71875 C 162.054688 405.40625 161.714844 405.125 161.34375 404.875 C 160.972656 404.628906 160.582031 404.417969 160.171875 404.25 C 159.757812 404.078125 159.335938 403.949219 158.898438 403.863281 C 158.460938 403.777344 158.019531 403.734375 157.578125 403.734375 Z M 157.578125 403.734375 " fill-opacity="1" fill-rule="nonzero"/><path fill="#ffffff" d="M 557.578125 179.902344 C 557.132812 179.902344 556.695312 179.949219 556.257812 180.035156 C 555.820312 180.121094 555.394531 180.25 554.984375 180.421875 C 554.574219 180.589844 554.183594 180.800781 553.8125 181.046875 C 553.441406 181.292969 553.101562 181.574219 552.785156 181.890625 C 552.46875 182.207031 552.191406 182.546875 551.941406 182.917969 C 551.695312 183.289062 551.484375 183.679688 551.316406 184.089844 C 551.144531 184.503906 551.015625 184.925781 550.929688 185.363281 C 550.84375 185.800781 550.800781 186.242188 550.800781 186.6875 C 550.800781 187.132812 550.84375 187.574219 550.929688 188.011719 C 551.015625 188.445312 551.144531 188.871094 551.316406 189.28125 C 551.484375 189.695312 551.695312 190.085938 551.941406 190.453125 C 552.191406 190.824219 552.46875 191.167969 552.785156 191.484375 C 553.101562 191.796875 553.441406 192.078125 553.8125 192.328125 C 554.183594 192.574219 554.574219 192.78125 554.984375 192.953125 C 555.394531 193.125 555.820312 193.253906 556.257812 193.339844 C 556.695312 193.425781 557.132812 193.46875 557.578125 193.46875 C 558.023438 193.46875 558.464844 193.425781 558.902344 193.339844 C 559.339844 193.253906 559.761719 193.125 560.175781 192.953125 C 560.585938 192.78125 560.976562 192.574219 561.347656 192.328125 C 561.714844 192.078125 562.058594 191.796875 562.375 191.484375 C 562.6875 191.167969 562.96875 190.824219 563.214844 190.453125 C 563.464844 190.085938 563.671875 189.695312 563.84375 189.28125 C 564.011719 188.871094 564.140625 188.445312 564.230469 188.011719 C 564.316406 187.574219 564.359375 187.132812 564.359375 186.6875 C 564.359375 186.242188 564.316406 185.800781 564.230469 185.363281 C 564.140625 184.925781 564.011719 184.503906 563.84375 184.089844 C 563.671875 183.679688 563.464844 183.289062 563.214844 182.917969 C 562.96875 182.546875 562.6875 182.207031 562.375 181.890625 C 562.058594 181.574219 561.714844 181.292969 561.347656 181.046875 C 560.976562 180.800781 560.585938 180.589844 560.175781 180.421875 C 559.761719 180.25 559.339844 180.121094 558.902344 180.035156 C 558.464844 179.949219 558.023438 179.902344 557.578125 179.902344 Z M 557.578125 179.902344 " fill-opacity="1" fill-rule="nonzero"/><path fill="#e5ac80" d="M 477.042969 434.429688 C 474.296875 419.875 468.367188 411.351562 454.386719 407.125 C 453.773438 406.941406 452.960938 406.644531 452.046875 406.289062 C 450.988281 405.828125 449.644531 405.285156 448.074219 404.675781 C 439.605469 401.09375 389.273438 382.515625 389.273438 382.515625 C 385.125 381.464844 382.425781 378.507812 380.867188 375.179688 C 378.289062 369.675781 379.285156 355.414062 379.285156 355.414062 C 379.285156 355.414062 358.242188 362.617188 345.109375 365.070312 C 332.230469 366.328125 304.546875 349.660156 304.546875 349.660156 C 304.546875 349.660156 303.894531 370.261719 303.023438 374.839844 C 302.328125 378.433594 298.464844 381.472656 294.316406 382.523438 L 246.019531 400.042969 C 240.675781 401.441406 235.550781 403.433594 231.042969 406.222656 C 218.886719 413.730469 212.730469 425.003906 209.597656 434.4375 C 209.597656 434.4375 206.417969 456.929688 206.546875 457.738281 C 206.246094 460.882812 205.9375 464.351562 205.617188 467.992188 C 258.253906 503.648438 300.535156 513.640625 373.070312 510.464844 C 406.027344 509.019531 455.097656 492.742188 480.804688 479.761719 C 479.441406 451.101562 477.042969 434.429688 477.042969 434.429688 Z M 477.042969 434.429688 " fill-opacity="1" fill-rule="nonzero"/><path fill="#fdfcef" d="M 454.386719 408.332031 C 453.773438 408.148438 452.960938 407.851562 452.046875 407.496094 C 450.988281 407.035156 449.644531 406.492188 448.074219 405.882812 C 442.832031 403.664062 421.597656 395.722656 406.148438 389.976562 L 405.421875 389.789062 C 388.363281 398.539062 364.09375 411.667969 341.800781 411.667969 C 319.511719 411.667969 297.15625 399.800781 278.179688 389.789062 L 276.050781 390.351562 L 246.011719 401.242188 C 240.667969 402.640625 235.542969 404.636719 231.035156 407.421875 C 218.878906 414.929688 212.722656 426.203125 209.589844 435.640625 C 209.589844 435.640625 206.410156 458.128906 206.539062 458.9375 C 206.242188 462.085938 205.929688 495.863281 205.609375 499.503906 C 258.25 535.160156 300.527344 545.152344 373.0625 541.976562 C 406.019531 540.535156 455.089844 524.253906 480.800781 511.273438 C 479.4375 482.621094 477.042969 435.640625 477.042969 435.640625 C 474.296875 421.082031 468.367188 412.558594 454.386719 408.332031 Z M 454.386719 408.332031 " fill-opacity="1" fill-rule="nonzero"/><path fill="#e1e0d8" d="M 251.835938 528.203125 C 250.710938 528.203125 249.800781 527.292969 249.800781 526.167969 L 249.800781 499.382812 C 249.800781 498.257812 250.710938 497.347656 251.835938 497.347656 C 252.960938 497.347656 253.867188 498.257812 253.867188 499.382812 L 253.867188 526.167969 C 253.867188 527.292969 252.960938 528.203125 251.835938 528.203125 Z M 430.332031 532.910156 C 429.207031 532.910156 428.296875 532 428.296875 530.875 L 428.296875 499.375 C 428.296875 498.25 429.207031 497.339844 430.332031 497.339844 C 431.457031 497.339844 432.363281 498.25 432.363281 499.375 L 432.363281 530.875 C 432.363281 532 431.457031 532.910156 430.332031 532.910156 Z M 430.332031 532.910156 " fill-opacity="1" fill-rule="nonzero"/><path fill="#66798f" d="M 354.960938 449.800781 L 369.257812 542.527344 L 311.996094 542.527344 L 326.296875 449.800781 C 332.667969 438.242188 348.589844 438.242188 354.960938 449.800781 Z M 354.960938 449.800781 " fill-opacity="1" fill-rule="nonzero"/><path fill="#97aec7" d="M 327.382812 436.839844 L 314.160156 407.980469 L 367.097656 407.980469 L 353.875 436.839844 C 347.992188 447.039062 333.265625 447.039062 327.382812 436.839844 Z M 327.382812 436.839844 " fill-opacity="1" fill-rule="nonzero"/><path fill="#eaeae8" d="M 292.738281 381.1875 L 276.546875 392.371094 L 311.257812 444.773438 L 343.457031 404.824219 C 343.457031 404.824219 295.117188 392.371094 292.738281 381.1875 Z M 292.738281 381.1875 " fill-opacity="1" fill-rule="nonzero"/><path fill="#eaeae8" d="M 388.519531 381.1875 L 404.710938 392.371094 L 370 444.773438 L 337.800781 404.824219 C 337.800781 404.824219 386.140625 392.371094 388.519531 381.1875 Z M 388.519531 381.1875 " fill-opacity="1" fill-rule="nonzero"/><path fill="#edbc94" d="M 424.820312 255.695312 C 424.027344 255.640625 423.21875 255.632812 422.378906 255.632812 C 415.835938 255.320312 413.972656 257.898438 414.269531 253.894531 C 414.796875 246.800781 413.796875 218.015625 413.796875 216.566406 C 413.796875 186.734375 382.25 162.410156 342.839844 161.0625 L 342.839844 160.972656 C 342.574219 160.980469 342.316406 161.007812 342.046875 161.015625 C 341.78125 161.007812 341.523438 160.972656 341.253906 160.972656 L 341.253906 161.0625 C 301.835938 162.410156 270.296875 186.734375 270.296875 216.566406 C 270.296875 218.015625 269.292969 246.800781 269.820312 253.894531 C 270.121094 257.890625 268.253906 255.3125 261.710938 255.632812 C 260.871094 255.632812 260.066406 255.640625 259.273438 255.695312 C 252.097656 256.167969 246.296875 260.671875 245.054688 266.253906 C 245.9375 266.785156 249.199219 291.226562 254.484375 300.859375 C 257.441406 306.238281 262.050781 306.984375 266.789062 310.457031 C 269.414062 312.382812 269.921875 314.546875 270.640625 317.421875 C 273.300781 328.066406 280.683594 337.113281 288.769531 344.839844 C 292.765625 348.652344 319.273438 376.546875 342.046875 375.136719 C 364.925781 374.289062 391.328125 348.652344 395.320312 344.839844 C 403.410156 337.113281 410.792969 328.066406 413.449219 317.421875 C 414.167969 314.546875 414.667969 312.375 417.300781 310.457031 C 422.039062 306.984375 426.648438 306.238281 429.605469 300.859375 C 434.894531 291.226562 438.160156 266.785156 439.035156 266.253906 C 437.796875 260.671875 431.992188 256.160156 424.820312 255.695312 Z M 424.820312 255.695312 " fill-opacity="1" fill-rule="nonzero"/><path fill="#512c2b" d="M 342.453125 309.175781 C 347.082031 309.175781 351.570312 307.152344 354.460938 303.769531 C 354.75 303.429688 354.710938 302.914062 354.371094 302.625 C 354.03125 302.332031 353.523438 302.367188 353.226562 302.703125 C 350.871094 305.398438 346.941406 306.945312 342.453125 306.945312 C 337.957031 306.945312 334.03125 305.398438 331.679688 302.703125 C 331.515625 302.523438 331.292969 302.425781 331.0625 302.425781 C 330.871094 302.425781 330.683594 302.496094 330.535156 302.625 C 330.195312 302.914062 330.152344 303.429688 330.445312 303.769531 C 333.332031 307.152344 337.820312 309.175781 342.453125 309.175781 Z M 327.6875 239.816406 L 330.621094 234.171875 C 318.203125 231.261719 303.902344 231.722656 292.097656 235.386719 L 295.800781 240.886719 C 305.503906 237.6875 317.433594 237.277344 327.6875 239.816406 Z M 389.863281 239.816406 L 392.796875 234.171875 C 380.378906 231.261719 366.078125 231.722656 354.277344 235.386719 L 357.976562 240.886719 C 367.6875 237.6875 379.617188 237.277344 389.863281 239.816406 Z M 309.808594 247.777344 C 306.824219 247.777344 304.207031 249.753906 302.695312 252.738281 C 303.074219 252.621094 303.460938 252.539062 303.875 252.539062 C 306.324219 252.539062 308.304688 254.757812 308.304688 257.484375 C 308.304688 260.21875 306.316406 262.429688 303.875 262.429688 C 303.074219 262.429688 302.335938 262.171875 301.6875 261.757812 C 302.730469 266.242188 305.96875 269.503906 309.816406 269.503906 C 314.5 269.503906 318.304688 264.640625 318.304688 258.636719 C 318.296875 252.648438 314.492188 247.777344 309.808594 247.777344 Z M 374.738281 247.777344 C 372.1875 247.777344 369.910156 249.222656 368.359375 251.496094 C 368.847656 251.292969 369.367188 251.164062 369.917969 251.164062 C 372.363281 251.164062 374.34375 253.382812 374.34375 256.109375 C 374.34375 258.839844 372.359375 261.050781 369.917969 261.050781 C 368.398438 261.050781 367.0625 260.199219 366.261719 258.894531 C 366.371094 264.777344 370.121094 269.496094 374.738281 269.496094 C 379.421875 269.496094 383.226562 264.632812 383.226562 258.628906 C 383.21875 252.648438 379.421875 247.777344 374.738281 247.777344 Z M 378.335938 321.765625 C 378.683594 321.480469 378.738281 320.96875 378.460938 320.625 C 378.179688 320.277344 377.667969 320.21875 377.3125 320.503906 C 369.667969 326.601562 356.960938 330.101562 342.460938 330.101562 C 327.957031 330.101562 315.253906 326.601562 307.597656 320.496094 C 307.449219 320.375 307.273438 320.320312 307.089844 320.320312 C 306.851562 320.320312 306.613281 320.421875 306.453125 320.625 C 306.175781 320.96875 306.222656 321.484375 306.566406 321.769531 C 315.203125 328.832031 328.621094 333.050781 342.453125 333.050781 C 356.28125 333.042969 369.691406 328.832031 378.335938 321.765625 Z M 378.335938 321.765625 " fill-opacity="1" fill-rule="nonzero"/><path fill="#472b29" d="M 349.625 545.234375 C 289.375 545.234375 250.5 533.1875 204.09375 501.75 C 203.277344 501.199219 202.824219 500.25 202.914062 499.273438 C 202.972656 498.535156 203.007812 496.023438 203.0625 492.394531 C 203.277344 477.625 203.738281 446.890625 206.980469 434.925781 C 211.359375 418.75 217.765625 412.429688 229.617188 405.109375 C 234.050781 402.375 239.339844 400.191406 245.332031 398.625 L 293.386719 381.179688 C 297.027344 380.238281 299.910156 377.851562 300.351562 375.539062 C 300.554688 374.5 300.945312 371.265625 301.414062 361.246094 C 294.304688 356.234375 288.511719 351.703125 286.871094 350.09375 C 276.382812 339.832031 270.390625 330.492188 268.003906 320.707031 C 267.273438 317.703125 266.890625 316.386719 265.164062 315.082031 C 263.738281 314.019531 262.316406 313.226562 260.960938 312.457031 C 257.765625 310.652344 254.464844 308.796875 252.097656 304.375 C 246.457031 293.847656 242.34375 273.972656 242.34375 267.625 C 243.9375 259.980469 250.796875 254.65625 259.089844 254.09375 C 259.9375 254.039062 260.804688 254.023438 261.707031 254.023438 C 263.964844 253.921875 265.765625 254.148438 267.0625 254.34375 C 266.722656 247.492188 267.25 228.535156 267.488281 220.246094 C 267.542969 218.289062 267.585938 216.992188 267.585938 216.714844 C 267.585938 184.917969 299.558594 158.84375 340.5 157.140625 C 340.742188 157.066406 340.996094 157.027344 341.253906 157.027344 C 341.320312 157.027344 341.882812 157.058594 341.957031 157.066406 L 342.839844 157.027344 C 343.109375 157.027344 343.375 157.066406 343.617188 157.148438 C 384.546875 158.855469 416.507812 184.921875 416.507812 216.714844 C 416.507812 216.992188 416.542969 218.289062 416.601562 220.246094 C 416.832031 228.542969 417.363281 247.5 417.03125 254.34375 C 418.332031 254.152344 420.160156 253.917969 422.519531 254.03125 C 423.265625 254.046875 424.148438 254.039062 425.003906 254.09375 C 433.300781 254.65625 440.15625 259.980469 441.6875 267.046875 C 441.75 274.941406 437.375 294.320312 431.992188 304.367188 C 429.621094 308.796875 426.324219 310.660156 423.132812 312.457031 C 421.773438 313.21875 420.351562 314.011719 418.921875 315.089844 C 417.191406 316.386719 416.804688 317.714844 416.113281 320.570312 C 413.695312 330.5 407.699219 339.839844 397.210938 350.101562 C 395.476562 351.796875 389.257812 356.859375 381.808594 362.222656 C 381.769531 368.382812 382.304688 373.089844 383.320312 375.246094 C 384.332031 377.410156 386.304688 380.191406 389.945312 381.105469 C 392.269531 381.945312 440.703125 399.824219 449.136719 403.402344 C 450.671875 403.992188 452.039062 404.546875 453.117188 405.015625 C 453.863281 405.292969 454.621094 405.570312 455.1875 405.742188 C 469.292969 410 476.628906 418.789062 479.714844 435.136719 C 479.734375 435.257812 479.75 435.382812 479.753906 435.503906 C 479.753906 435.503906 482.15625 482.492188 483.511719 511.144531 C 483.566406 512.207031 482.980469 513.210938 482.027344 513.695312 C 454.675781 527.503906 405.292969 543.28125 373.183594 544.683594 C 364.960938 545.042969 357.125 545.234375 349.625 545.234375 Z M 208.382812 498.101562 C 258.898438 532.019531 300.640625 542.425781 372.949219 539.265625 C 403.734375 537.914062 450.878906 522.992188 478.011719 509.632812 C 476.699219 481.9375 474.507812 439.117188 474.351562 435.964844 C 471.613281 421.632812 465.78125 414.613281 453.605469 410.9375 C 452.949219 410.738281 452.066406 410.421875 451.078125 410.039062 C 449.9375 409.550781 448.628906 409.023438 447.097656 408.425781 C 438.703125 404.871094 388.839844 386.464844 388.335938 386.273438 C 384.167969 385.238281 380.546875 382.101562 378.410156 377.546875 C 376.925781 374.363281 376.25 368.722656 376.410156 360.757812 C 376.425781 359.894531 376.851562 359.101562 377.550781 358.601562 C 385.808594 352.71875 392.058594 347.550781 393.429688 346.214844 C 403.15625 336.699219 408.683594 328.1875 410.820312 319.425781 C 411.597656 316.195312 412.3125 313.277344 415.671875 310.753906 C 417.308594 309.527344 418.921875 308.613281 420.472656 307.738281 C 423.335938 306.125 425.59375 304.847656 427.21875 301.808594 C 432.480469 291.988281 436.332031 273.511719 436.332031 267.632812 C 435.390625 263.554688 430.445312 259.90625 424.644531 259.519531 C 423.910156 259.464844 423.164062 259.464844 422.386719 259.464844 C 420.128906 259.363281 418.59375 259.601562 417.367188 259.789062 C 415.78125 260.046875 414.128906 260.304688 412.773438 259.058594 C 411.363281 257.761719 411.503906 255.75 411.570312 254.777344 C 411.984375 249.039062 411.402344 228.246094 411.183594 220.410156 C 411.132812 218.363281 411.089844 217.011719 411.089844 216.71875 C 411.089844 187.691406 381.070312 163.898438 342.742188 162.546875 C 342.589844 162.546875 342.433594 162.527344 342.277344 162.492188 C 342.085938 162.5 341.910156 162.484375 341.917969 162.507812 L 341.910156 162.464844 C 341.734375 162.511719 341.542969 162.539062 341.355469 162.546875 C 303.027344 163.898438 273.007812 187.691406 273.007812 216.71875 C 273.007812 217.011719 272.972656 218.363281 272.914062 220.410156 C 272.695312 228.246094 272.113281 249.046875 272.527344 254.777344 C 272.59375 255.75 272.742188 257.75 271.328125 259.058594 C 269.964844 260.3125 268.324219 260.046875 266.722656 259.789062 C 265.496094 259.601562 263.992188 259.363281 261.839844 259.457031 C 260.933594 259.464844 260.179688 259.464844 259.449219 259.519531 C 253.644531 259.914062 248.710938 263.570312 247.699219 268.207031 C 247.761719 273.363281 251.699219 292.15625 256.871094 301.816406 C 258.5 304.847656 260.757812 306.125 263.617188 307.738281 C 265.164062 308.613281 266.777344 309.535156 268.410156 310.75 C 271.765625 313.273438 272.480469 316.1875 273.226562 319.273438 C 275.402344 328.1875 280.925781 336.699219 290.65625 346.222656 C 291.996094 347.539062 297.992188 352.253906 305.734375 357.664062 C 306.492188 358.195312 306.933594 359.082031 306.886719 360.011719 C 306.492188 368.808594 306.078125 374.378906 305.664062 376.566406 C 304.675781 381.714844 299.578125 385.195312 294.960938 386.371094 L 246.933594 403.800781 C 241.222656 405.3125 236.429688 407.28125 232.457031 409.734375 C 221.414062 416.550781 216.160156 421.753906 212.214844 436.351562 C 209.148438 447.65625 208.683594 479.070312 208.484375 492.476562 C 208.445312 494.871094 208.417969 496.796875 208.382812 498.101562 Z M 208.382812 498.101562 " fill-opacity="1" fill-rule="nonzero"/><path fill="#d3a47d" d="M 425.238281 287.621094 L 421.191406 287.171875 L 422.554688 275.105469 L 415.699219 278.078125 L 414.085938 274.339844 L 424.160156 269.972656 C 424.820312 269.6875 425.59375 269.773438 426.175781 270.203125 C 426.757812 270.628906 427.070312 271.339844 426.988281 272.058594 Z M 261.046875 285.292969 L 259.300781 269.734375 C 259.21875 269.015625 259.53125 268.304688 260.113281 267.875 C 260.695312 267.449219 261.46875 267.339844 262.132812 267.644531 L 272.207031 272.011719 L 270.59375 275.75 L 263.738281 272.78125 L 265.101562 284.847656 Z M 261.046875 285.292969 " fill-opacity="1" fill-rule="nonzero"/><path fill="#472b29" d="M 270.132812 315.421875 C 270.125 315.421875 270.121094 315.421875 270.105469 315.421875 C 269.359375 315.410156 268.761719 314.785156 268.777344 314.039062 L 269.894531 255.390625 C 269.910156 254.644531 270.378906 253.972656 271.277344 254.058594 C 272.023438 254.074219 272.621094 254.695312 272.609375 255.441406 L 271.488281 314.09375 C 271.46875 314.839844 270.867188 315.421875 270.132812 315.421875 Z M 270.132812 315.421875 " fill-opacity="1" fill-rule="nonzero"/><path fill="#472b29" d="M 415.078125 315.421875 C 414.335938 315.421875 413.734375 314.832031 413.722656 314.09375 L 412.609375 255.441406 C 412.59375 254.695312 413.191406 254.074219 413.9375 254.058594 C 413.945312 254.058594 413.957031 254.058594 413.964844 254.058594 C 414.703125 254.058594 415.308594 254.648438 415.320312 255.390625 L 416.433594 314.039062 C 416.445312 314.785156 415.847656 315.410156 415.105469 315.421875 C 415.089844 315.421875 415.082031 315.421875 415.078125 315.421875 Z M 415.078125 315.421875 " fill-opacity="1" fill-rule="nonzero"/><path fill="#472b29" d="M 386.261719 352.183594 C 374.105469 360.507812 351.203125 365.113281 346.785156 357.910156 C 343.542969 352.625 338.859375 352.625 335.617188 357.910156 C 330.796875 365.761719 306.261719 357.636719 293.691406 348.644531 C 290.160156 348.820312 293.609375 349.835938 290.832031 352.292969 C 307.257812 366.402344 339.367188 385.601562 341.109375 384.992188 C 341.109375 384.992188 341.191406 385.046875 341.203125 385.039062 L 341.300781 384.992188 C 342.941406 385.027344 370.710938 368.953125 387.835938 355.265625 C 385.429688 352.332031 390.121094 352.253906 386.261719 352.183594 Z M 386.261719 352.183594 " fill-opacity="1" fill-rule="nonzero"/><path fill="#472b29" d="M 411.652344 179.257812 C 411.652344 179.257812 426.460938 182.265625 426.019531 196.859375 C 425.585938 211.457031 415.441406 274.890625 415.441406 274.890625 L 394.667969 209.734375 Z M 411.652344 179.257812 " fill-opacity="1" fill-rule="nonzero"/><path fill="#472b29" d="M 333.28125 138.480469 L 325.441406 127.75 C 325.441406 127.75 413.523438 118.128906 413.394531 165.953125 C 413.234375 229.484375 355.917969 242.78125 355.917969 242.78125 L 360.269531 225.613281 L 325.875 243.640625 L 330.230469 233.339844 L 301.496094 243.640625 L 311.945312 220.039062 L 286.253906 229.480469 C 286.253906 229.480469 276.1875 254.5625 272.484375 274.890625 C 272.484375 274.890625 252.5 207.652344 265.351562 202.4375 L 260.566406 199.859375 L 266.660156 187.839844 L 257.515625 183.972656 L 265.351562 172.816406 L 261.867188 168.09375 L 279.285156 158.226562 L 270.140625 153.503906 C 270.140625 153.503906 299.3125 129.46875 333.28125 138.480469 Z M 333.28125 138.480469 " fill-opacity="1" fill-rule="nonzero"/><path fill="#66798f" d="M 333.117188 250.960938 C 319.617188 234.503906 268.738281 246.171875 268.683594 246.164062 C 269.617188 249.882812 270.425781 253.550781 271.164062 257.179688 C 274.941406 257.574219 275.164062 266.066406 275.542969 269.171875 C 277.375 284.175781 287.40625 295.238281 308.539062 294.714844 C 329.714844 293.617188 334.664062 278.28125 335.535156 268.628906 C 336.480469 258.09375 333.109375 250.992188 333.117188 250.960938 Z M 330.703125 269.394531 C 329.613281 282.84375 321.359375 290.714844 308.019531 291.355469 C 306.667969 291.433594 305.355469 291.4375 304.097656 291.382812 C 283.070312 291.34375 279.476562 272.933594 279.0625 261.289062 C 278.789062 254.621094 283.550781 248.917969 290.261719 248.253906 C 294.121094 247.875 298.464844 247.875 303.488281 247.875 C 319.203125 247.875 326.039062 251.625 327.863281 254.636719 C 328.925781 256.433594 331.3125 262.089844 330.703125 269.394531 Z M 348.019531 268.628906 C 348.894531 278.28125 353.84375 293.617188 375.015625 294.714844 C 396.148438 295.238281 406.183594 284.175781 408.011719 269.171875 C 408.386719 266.066406 408.609375 257.574219 412.390625 257.179688 C 413.125 253.550781 413.9375 249.882812 414.875 246.164062 C 414.820312 246.171875 363.9375 234.496094 350.4375 250.960938 C 350.433594 250.992188 347.0625 258.09375 348.019531 268.628906 Z M 355.6875 254.644531 C 357.503906 251.632812 364.34375 247.878906 380.058594 247.878906 C 385.078125 247.878906 389.421875 247.878906 393.285156 248.261719 C 400 248.925781 404.757812 254.628906 404.488281 261.296875 C 404.074219 272.941406 400.472656 291.351562 379.449219 291.390625 C 378.195312 291.445312 376.878906 291.433594 375.53125 291.363281 C 362.179688 290.71875 353.9375 282.84375 352.84375 269.402344 C 352.234375 262.089844 354.613281 256.433594 355.6875 254.644531 Z M 355.6875 254.644531 " fill-opacity="1" fill-rule="nonzero"/><path fill="#66798f" d="M 350.898438 263.886719 C 350.898438 263.886719 347.449219 261.160156 341.414062 261.167969 C 335.761719 261.167969 332.640625 263.886719 332.640625 263.886719 C 331.71875 261.335938 330.796875 258.785156 329.871094 256.242188 C 337.800781 256.242188 345.734375 256.242188 353.667969 256.242188 C 352.742188 258.792969 351.820312 261.335938 350.898438 263.886719 Z M 350.898438 263.886719 " fill-opacity="1" fill-rule="nonzero"/><path fill="#ffffff" d="M 462.664062 464.777344 L 530.460938 464.777344 L 530.460938 532.605469 L 462.664062 532.605469 Z M 462.664062 464.777344 " fill-opacity="1" fill-rule="nonzero"/><path fill="#afabd4" d="M 476.785156 574.09375 C 471.238281 572.527344 465.898438 570.34375 460.820312 567.589844 C 463.652344 558.101562 461.464844 549.539062 454.363281 542.636719 C 449.519531 537.914062 443.898438 535.519531 437.667969 535.519531 C 435.078125 535.519531 432.390625 535.949219 429.644531 536.796875 C 426.824219 531.761719 424.589844 526.472656 422.960938 520.992188 C 431.929688 516.222656 436.515625 508.492188 436.277344 498.414062 C 436.046875 488.761719 431.363281 481.421875 422.65625 476.980469 C 424.207031 471.464844 426.363281 466.148438 429.105469 461.085938 C 431.957031 462.003906 434.746094 462.464844 437.429688 462.464844 C 443.828125 462.464844 449.570312 459.921875 454.492188 454.921875 C 461.464844 447.828125 463.417969 439.160156 460.25 429.648438 C 465.199219 426.894531 470.492188 424.683594 476.066406 423.03125 C 480.664062 432.039062 488.175781 436.765625 498 436.765625 C 498.75 436.765625 499.53125 436.738281 500.324219 436.675781 C 509.457031 436 516.339844 431.269531 520.445312 422.921875 C 525.925781 424.496094 531.226562 426.691406 536.285156 429.464844 C 533.160156 439.125 535.214844 447.847656 542.351562 454.894531 C 547.246094 459.730469 552.910156 462.1875 559.1875 462.1875 C 561.925781 462.179688 564.765625 461.703125 567.652344 460.742188 C 569.84375 464.789062 572.808594 471.863281 574.167969 476.574219 C 565.078125 481.3125 560.421875 489.078125 560.628906 499.21875 C 560.828125 508.757812 565.429688 516.074219 574.011719 520.613281 C 572.414062 526.097656 570.195312 531.410156 567.398438 536.457031 C 564.65625 535.648438 561.992188 535.234375 559.4375 535.234375 C 552.34375 535.234375 546.164062 538.253906 541.058594 544.203125 C 535.363281 550.84375 533.78125 558.785156 536.394531 567.386719 C 531.347656 570.160156 526.007812 572.371094 520.460938 573.984375 C 516.007812 565.675781 507.957031 560.820312 498.398438 560.820312 C 489.210938 560.949219 481.160156 566.050781 476.785156 574.09375 Z M 498.371094 479.476562 C 487.910156 479.476562 479.363281 487.960938 479.316406 498.386719 C 479.265625 508.871094 487.78125 517.453125 498.296875 517.5 C 508.710938 517.4375 517.0625 509.332031 517.363281 499.035156 C 517.511719 493.875 515.625 489 512.054688 485.289062 C 508.496094 481.585938 503.699219 479.515625 498.5625 479.476562 C 498.546875 479.476562 498.386719 479.476562 498.371094 479.476562 Z M 498.371094 479.476562 " fill-opacity="1" fill-rule="nonzero"/><path fill="#472b29" d="M 522.652344 428.605469 C 525.402344 429.554688 528.101562 430.675781 530.730469 431.949219 C 528.765625 441.804688 531.574219 450.941406 539.003906 458.28125 C 544.738281 463.941406 551.707031 466.933594 559.171875 466.933594 C 561.132812 466.933594 563.117188 466.730469 565.132812 466.324219 C 566.296875 468.847656 567.519531 471.824219 568.46875 474.449219 C 560.0625 480.152344 555.648438 488.753906 555.863281 499.320312 C 556.074219 509.21875 560.433594 517.296875 568.339844 522.730469 C 567.363281 525.542969 566.210938 528.304688 564.886719 530.988281 C 563.035156 530.65625 561.207031 530.488281 559.417969 530.488281 C 551.003906 530.488281 543.402344 534.164062 537.4375 541.117188 C 531.574219 547.953125 529.355469 556.179688 530.90625 564.882812 C 528.183594 566.210938 525.375 567.371094 522.507812 568.363281 C 516.960938 560.636719 508.238281 556.074219 498.394531 556.074219 C 498.351562 556.074219 498.027344 556.074219 497.984375 556.074219 C 488.671875 556.1875 480.15625 560.867188 474.699219 568.492188 C 471.816406 567.527344 469.015625 566.390625 466.277344 565.058594 C 467.980469 555.367188 465.050781 546.40625 457.667969 539.222656 C 451.980469 533.691406 445.0625 530.765625 437.660156 530.765625 C 435.828125 530.765625 433.972656 530.941406 432.09375 531.296875 C 430.757812 528.621094 429.605469 525.894531 428.617188 523.09375 C 436.921875 517.371094 441.261719 508.804688 441.015625 498.289062 C 440.777344 488.265625 436.332031 480.152344 428.289062 474.78125 C 429.226562 472 430.332031 469.273438 431.597656 466.621094 C 433.566406 467.007812 435.503906 467.199219 437.414062 467.199219 C 445.03125 467.199219 452.109375 464.097656 457.871094 458.230469 C 465.117188 450.867188 467.816406 441.796875 465.808594 432.085938 C 468.417969 430.808594 471.117188 429.683594 473.898438 428.707031 C 479.4375 437.027344 487.753906 441.511719 498 441.511719 C 498.867188 441.511719 499.753906 441.480469 500.671875 441.410156 C 510.074219 440.726562 517.648438 436.257812 522.652344 428.605469 M 498.3125 522.246094 C 498.332031 522.246094 498.351562 522.246094 498.371094 522.246094 C 511.308594 522.171875 521.734375 512.039062 522.101562 499.179688 C 522.285156 492.742188 519.933594 486.636719 515.472656 482 C 511.015625 477.371094 505.03125 474.789062 498.378906 474.726562 C 485.308594 474.726562 474.621094 485.328125 474.570312 498.363281 C 474.542969 504.726562 476.988281 510.710938 481.476562 515.21875 C 485.953125 519.722656 491.917969 522.21875 498.277344 522.246094 C 498.285156 522.246094 498.296875 522.246094 498.3125 522.246094 M 517.640625 417.296875 C 514.683594 425.898438 508.957031 431.292969 499.964844 431.957031 C 499.292969 432.003906 498.636719 432.03125 498 432.03125 C 488.460938 432.03125 482.183594 426.617188 478.757812 417.386719 C 470.019531 419.523438 461.878906 422.902344 454.316406 427.636719 C 458.472656 436.417969 457.9375 444.632812 451.105469 451.585938 C 446.976562 455.789062 442.359375 457.714844 437.414062 457.714844 C 434.082031 457.714844 430.59375 456.839844 427.015625 455.1875 C 422.386719 462.808594 419.054688 470.96875 417.0625 479.707031 C 425.953125 482.960938 431.308594 489.058594 431.53125 498.519531 C 431.761719 508.363281 426.464844 514.800781 417.335938 518.347656 C 419.4375 527.015625 422.867188 535.078125 427.59375 542.628906 C 431.054688 541.082031 434.433594 540.261719 437.667969 540.261719 C 442.480469 540.261719 446.996094 542.078125 451.054688 546.035156 C 457.980469 552.769531 458.820312 560.910156 454.988281 569.707031 C 462.617188 574.34375 470.722656 577.660156 479.410156 579.664062 C 479.539062 579.40625 479.640625 579.25 479.699219 579.085938 C 482.839844 570.90625 489.964844 565.671875 498.113281 565.566406 C 498.210938 565.566406 498.304688 565.566406 498.398438 565.566406 C 506.988281 565.566406 514.085938 570.417969 517.390625 578.632812 C 517.632812 579.242188 517.90625 579.433594 518.292969 579.433594 C 518.480469 579.433594 518.699219 579.382812 518.949219 579.324219 C 526.800781 577.335938 534.210938 574.277344 541.164062 570.125 C 541.546875 569.902344 541.90625 569.636719 542.210938 569.441406 C 538.671875 561.464844 538.996094 553.894531 544.652344 547.300781 C 548.941406 542.296875 553.9375 539.992188 559.429688 539.992188 C 562.628906 539.992188 566 540.769531 569.5 542.261719 C 574.191406 534.679688 577.566406 526.59375 579.621094 517.945312 C 570.859375 514.589844 565.558594 508.585938 565.363281 499.125 C 565.152344 489.148438 570.550781 482.824219 579.59375 479.324219 C 579.042969 473.871094 572.699219 458.558594 569.492188 454.910156 C 565.960938 456.5625 562.507812 457.4375 559.1875 457.4375 C 554.347656 457.4375 549.78125 455.574219 545.679688 451.515625 C 538.652344 444.578125 538.101562 436.269531 542.183594 427.40625 C 534.554688 422.71875 526.378906 419.328125 517.640625 417.296875 Z M 498.316406 512.75 C 490.398438 512.71875 484.019531 506.292969 484.058594 498.40625 C 484.09375 490.539062 490.46875 484.222656 498.386719 484.222656 C 498.433594 484.222656 498.472656 484.222656 498.519531 484.222656 C 506.488281 484.296875 512.847656 490.910156 512.617188 498.90625 C 512.40625 506.339844 506.359375 512.703125 498.316406 512.75 Z M 498.316406 512.75 " fill-opacity="1" fill-rule="nonzero"/><path fill="#7777ab" d="M 548.371094 485.75 C 541.335938 458.109375 513.234375 441.402344 485.605469 448.4375 C 457.980469 455.476562 441.28125 483.59375 448.3125 511.230469 C 455.347656 538.871094 483.449219 555.578125 511.078125 548.542969 C 538.710938 541.503906 555.402344 513.390625 548.371094 485.75 Z M 508.515625 538.457031 C 486.445312 544.082031 464.007812 530.738281 458.390625 508.660156 C 452.773438 486.582031 466.109375 464.132812 488.175781 458.515625 C 510.242188 452.894531 532.683594 466.234375 538.296875 488.3125 C 543.910156 510.390625 530.574219 532.839844 508.515625 538.457031 Z M 508.515625 538.457031 " fill-opacity="1" fill-rule="nonzero"/><path fill="#472b29" d="M 456.542969 500.183594 C 455.605469 500.183594 454.847656 499.421875 454.847656 498.488281 C 454.847656 474.496094 474.351562 454.984375 498.339844 454.984375 C 504.804688 454.984375 511.023438 456.367188 516.8125 459.085938 C 517.660156 459.492188 518.027344 460.496094 517.625 461.34375 C 517.226562 462.199219 516.210938 462.539062 515.367188 462.160156 C 510.035156 459.644531 504.304688 458.367188 498.339844 458.367188 C 476.230469 458.367188 458.238281 476.363281 458.238281 498.480469 C 458.238281 499.417969 457.476562 500.183594 456.542969 500.183594 Z M 498.339844 542 C 479.234375 542 462.554688 529.75 456.832031 511.53125 C 456.554688 510.636719 457.050781 509.683594 457.945312 509.40625 C 458.839844 509.144531 459.789062 509.625 460.066406 510.511719 C 465.335938 527.320312 480.710938 538.613281 498.332031 538.613281 C 507.390625 538.613281 515.9375 535.664062 523.042969 530.085938 C 523.777344 529.503906 524.847656 529.648438 525.421875 530.371094 C 526 531.105469 525.871094 532.175781 525.136719 532.753906 C 517.429688 538.796875 508.164062 542 498.339844 542 Z M 531.003906 526.269531 C 530.628906 526.269531 530.257812 526.148438 529.945312 525.894531 C 529.214844 525.3125 529.097656 524.246094 529.679688 523.507812 C 535.410156 516.332031 538.441406 507.679688 538.441406 498.480469 C 538.441406 493.433594 537.519531 488.515625 535.695312 483.871094 C 535.355469 483.003906 535.78125 482.019531 536.65625 481.679688 C 537.53125 481.347656 538.515625 481.769531 538.855469 482.644531 C 540.828125 487.683594 541.832031 493.011719 541.832031 498.488281 C 541.832031 508.472656 538.550781 517.851562 532.332031 525.636719 C 531.992188 526.050781 531.496094 526.269531 531.003906 526.269531 Z M 531.003906 526.269531 " fill-opacity="1" fill-rule="nonzero"/><path fill="#472b29" d="M 532.765625 476.476562 C 532.230469 476.476562 531.703125 476.21875 531.367188 475.746094 C 529.207031 472.605469 526.601562 469.78125 523.625 467.367188 C 522.902344 466.769531 522.785156 465.707031 523.382812 464.972656 C 523.980469 464.242188 525.050781 464.152344 525.769531 464.730469 C 528.996094 467.355469 531.816406 470.414062 534.164062 473.824219 C 534.691406 474.59375 534.496094 475.65625 533.726562 476.1875 C 533.4375 476.375 533.105469 476.476562 532.765625 476.476562 Z M 532.765625 476.476562 " fill-opacity="1" fill-rule="nonzero"/></svg>