<svg xmlns="http://www.w3.org/2000/svg" xmlns:xlink="http://www.w3.org/1999/xlink" width="940" zoomAndPan="magnify" viewBox="0 0 705 591.000005" height="788" preserveAspectRatio="xMidYMid meet" version="1.0"><defs><clipPath id="19ebecb587"><path d="M 83 9 L 683 9 L 683 582.027344 L 83 582.027344 Z M 83 9 " clip-rule="nonzero"/></clipPath></defs><path fill="#fec165" d="M 602.710938 435.097656 L 602.710938 406.808594 C 602.710938 402.367188 606.335938 398.863281 610.660156 398.863281 L 665.585938 398.863281 C 671.195312 398.863281 675.054688 404.472656 673.066406 409.617188 L 664.535156 432.292969 C 663.832031 434.046875 663.832031 436.148438 664.535156 437.902344 L 673.066406 460.578125 C 675.054688 465.839844 671.195312 471.332031 665.585938 471.332031 L 610.660156 471.332031 C 606.21875 471.332031 602.710938 467.710938 602.710938 463.382812 Z M 602.710938 435.097656 " fill-opacity="1" fill-rule="nonzero"/><path fill="#fec165" d="M 163.753906 435.097656 L 163.753906 406.808594 C 163.753906 402.367188 160.128906 398.863281 155.804688 398.863281 L 100.875 398.863281 C 95.265625 398.863281 91.410156 404.472656 93.398438 409.617188 L 101.929688 432.292969 C 102.628906 434.046875 102.628906 436.148438 101.929688 437.902344 L 93.398438 460.578125 C 91.410156 465.839844 95.265625 471.332031 100.875 471.332031 L 155.804688 471.332031 C 160.246094 471.332031 163.753906 467.710938 163.753906 463.382812 Z M 163.753906 435.097656 " fill-opacity="1" fill-rule="nonzero"/><path fill="#fdb441" d="M 673.183594 460.578125 C 675.171875 465.839844 671.3125 471.332031 665.703125 471.332031 L 638.238281 471.332031 C 643.847656 471.332031 647.707031 465.722656 645.71875 460.578125 L 637.1875 437.902344 C 636.488281 436.148438 636.488281 434.046875 637.1875 432.292969 L 645.71875 409.617188 C 647.707031 404.355469 643.847656 398.863281 638.238281 398.863281 L 665.703125 398.863281 C 671.3125 398.863281 675.171875 404.472656 673.183594 409.617188 L 664.652344 432.292969 C 663.949219 434.046875 663.949219 436.03125 664.652344 437.902344 Z M 673.183594 460.578125 " fill-opacity="1" fill-rule="nonzero"/><path fill="#fdb441" d="M 163.753906 406.808594 L 163.753906 463.382812 C 163.753906 467.828125 160.128906 471.332031 155.804688 471.332031 L 128.222656 471.332031 C 132.664062 471.332031 136.171875 467.710938 136.171875 463.382812 L 136.171875 406.808594 C 136.171875 402.367188 132.546875 398.863281 128.222656 398.863281 L 155.6875 398.863281 C 160.128906 398.863281 163.753906 402.367188 163.753906 406.808594 Z M 163.753906 406.808594 " fill-opacity="1" fill-rule="nonzero"/><path fill="#c8effe" d="M 331.691406 21.425781 C 288.335938 27.738281 227.210938 38.257812 186.308594 52.167969 C 181.632812 53.804688 178.476562 58.128906 178.476562 63.15625 L 178.476562 377.703125 C 178.476562 427.03125 201.851562 474.023438 243.105469 506.167969 C 275.363281 531.296875 321.058594 557.363281 383.347656 573.261719 C 445.523438 557.363281 491.21875 531.296875 523.589844 506.167969 C 564.847656 474.023438 588.21875 427.03125 588.21875 377.703125 L 588.21875 63.039062 C 588.21875 58.128906 585.0625 53.6875 580.390625 52.050781 C 539.25 38.257812 478.128906 27.738281 434.769531 21.425781 C 400.644531 16.515625 365.820312 16.515625 331.691406 21.425781 Z M 331.691406 21.425781 " fill-opacity="1" fill-rule="nonzero"/><path fill="#99e6fc" d="M 587.984375 63.039062 L 587.984375 377.585938 C 587.984375 426.914062 564.613281 473.90625 523.359375 506.050781 C 499.632812 524.519531 468.664062 543.453125 429.160156 558.648438 C 457.792969 545.089844 481.167969 529.425781 500.101562 514.230469 C 541.355469 480.917969 564.730469 432.058594 564.730469 380.859375 L 564.730469 54.039062 C 564.730469 51.230469 563.792969 48.542969 562.15625 46.554688 C 568.46875 48.308594 574.546875 50.179688 580.273438 52.167969 C 584.832031 53.6875 587.984375 58.128906 587.984375 63.039062 Z M 587.984375 63.039062 " fill-opacity="1" fill-rule="nonzero"/><path fill="#f9f7f8" d="M 341.277344 63.503906 C 304.929688 68.765625 253.15625 77.648438 219.847656 89.570312 C 217.863281 90.273438 216.578125 92.144531 216.578125 94.246094 L 216.578125 371.277344 C 216.578125 411.367188 235.625 449.707031 269.167969 475.773438 C 295.464844 496.230469 332.628906 517.386719 383.230469 530.363281 C 433.835938 517.386719 471 496.230469 497.296875 475.773438 C 530.835938 449.707031 549.886719 411.367188 549.886719 371.277344 L 549.886719 94.246094 C 549.886719 92.144531 548.601562 90.273438 546.613281 89.570312 C 513.308594 77.765625 461.535156 68.765625 425.1875 63.503906 C 397.375 59.53125 369.089844 59.53125 341.277344 63.503906 Z M 341.277344 63.503906 " fill-opacity="1" fill-rule="nonzero"/><path fill="#efedef" d="M 549.886719 94.246094 L 549.886719 371.277344 C 549.886719 411.367188 530.835938 449.707031 497.296875 475.773438 C 474.507812 493.425781 443.535156 511.777344 402.75 524.75 C 432.316406 512.359375 455.691406 497.28125 473.921875 482.671875 C 507.464844 455.554688 526.511719 415.808594 526.511719 374.199219 L 526.511719 86.648438 C 526.511719 85.246094 525.929688 83.960938 525.109375 83.027344 C 532.824219 85.128906 540.070312 87.351562 546.613281 89.6875 C 548.601562 90.273438 549.886719 92.144531 549.886719 94.246094 Z M 549.886719 94.246094 " fill-opacity="1" fill-rule="nonzero"/><path fill="#fedba6" d="M 621.292969 426.5625 L 145.171875 426.5625 C 141.195312 426.5625 137.925781 423.292969 137.925781 419.316406 L 137.925781 329.898438 C 137.925781 325.921875 141.195312 322.648438 145.171875 322.648438 L 621.292969 322.648438 C 625.265625 322.648438 628.539062 325.921875 628.539062 329.898438 L 628.539062 419.316406 C 628.539062 423.292969 625.265625 426.5625 621.292969 426.5625 Z M 621.292969 426.5625 " fill-opacity="1" fill-rule="nonzero"/><path fill="#fece85" d="M 628.539062 329.898438 L 628.539062 419.316406 C 628.539062 423.292969 625.382812 426.5625 621.410156 426.5625 L 598.035156 426.5625 C 602.011719 426.5625 605.164062 423.292969 605.164062 419.316406 L 605.164062 329.898438 C 605.164062 325.921875 602.011719 322.648438 598.035156 322.648438 L 621.410156 322.648438 C 625.265625 322.765625 628.539062 325.921875 628.539062 329.898438 Z M 628.539062 329.898438 " fill-opacity="1" fill-rule="nonzero"/><path fill="#8d9ca8" d="M 376.101562 182.5 L 301.074219 182.5 L 301.074219 244.917969 C 301.074219 249.007812 303.761719 252.632812 307.617188 253.800781 C 314.046875 255.789062 322.925781 258.59375 324.214844 258.945312 C 360.324219 269.464844 410.695312 269.933594 445.875 252.515625 C 449.027344 250.996094 451.015625 247.722656 451.015625 244.214844 L 451.015625 182.5 Z M 376.101562 182.5 " fill-opacity="1" fill-rule="nonzero"/><path fill="#7a8c98" d="M 451.015625 182.5 L 451.015625 244.214844 C 451.015625 247.722656 449.027344 250.996094 445.992188 252.515625 C 439.914062 255.554688 433.25 258.007812 426.355469 259.996094 C 427.175781 258.59375 427.640625 256.957031 427.640625 255.203125 L 427.640625 182.382812 Z M 451.015625 182.5 " fill-opacity="1" fill-rule="nonzero"/><path fill="#596c76" d="M 371.546875 113.886719 L 251.402344 164.730469 C 249.535156 165.550781 249.535156 168.121094 251.402344 168.824219 L 371.546875 219.785156 C 374.464844 220.957031 377.738281 220.957031 380.542969 219.785156 L 500.683594 168.941406 C 502.554688 168.121094 502.554688 165.550781 500.683594 164.847656 L 380.542969 114 C 377.621094 112.714844 374.464844 112.714844 371.546875 113.886719 Z M 371.546875 113.886719 " fill-opacity="1" fill-rule="nonzero"/><path fill="#465a61" d="M 500.683594 168.941406 L 380.542969 219.785156 C 377.621094 221.074219 374.351562 221.074219 371.546875 219.785156 L 353.429688 212.070312 L 455.457031 168.941406 C 457.328125 168.121094 457.328125 165.550781 455.457031 164.847656 L 353.429688 121.714844 L 371.546875 114 C 374.464844 112.832031 377.738281 112.832031 380.542969 114 L 500.683594 164.847656 C 502.554688 165.550781 502.554688 168.121094 500.683594 168.941406 Z M 500.683594 168.941406 " fill-opacity="1" fill-rule="nonzero"/><path fill="#596c76" d="M 502.085938 270.28125 C 494.140625 270.28125 487.710938 263.855469 487.710938 255.90625 L 487.710938 238.839844 C 487.710938 230.890625 494.140625 224.460938 502.085938 224.460938 C 510.035156 224.460938 516.460938 230.890625 516.460938 238.839844 L 516.460938 255.90625 C 516.460938 263.855469 510.035156 270.28125 502.085938 270.28125 Z M 502.085938 270.28125 " fill-opacity="1" fill-rule="nonzero"/><path fill="#000000" d="M 344.664062 390.445312 C 344.546875 390.445312 344.546875 390.445312 344.664062 390.445312 C 341.742188 390.445312 338.820312 390.445312 336.132812 390.445312 L 336.132812 350 C 336.132812 345.210938 332.160156 341.234375 327.367188 341.234375 C 322.578125 341.234375 318.601562 345.210938 318.601562 350 L 318.601562 399.210938 C 318.601562 403.421875 321.640625 407.160156 325.847656 407.863281 C 326.433594 407.980469 326.902344 407.980469 332.511719 407.980469 C 335.199219 407.980469 339.054688 407.980469 344.664062 407.980469 C 349.457031 407.980469 353.429688 404.003906 353.429688 399.210938 C 353.3125 394.304688 349.457031 390.445312 344.664062 390.445312 Z M 344.664062 390.445312 " fill-opacity="1" fill-rule="nonzero"/><path fill="#000000" d="M 401.582031 390.445312 C 398.660156 390.445312 395.738281 390.445312 393.050781 390.445312 L 393.050781 350 C 393.050781 345.210938 389.074219 341.234375 384.285156 341.234375 C 379.492188 341.234375 375.519531 345.210938 375.519531 350 L 375.519531 399.210938 C 375.519531 403.421875 378.558594 407.160156 382.765625 407.863281 C 383.347656 407.980469 383.816406 407.980469 389.425781 407.980469 C 392.113281 407.980469 395.96875 407.980469 401.582031 407.980469 C 406.371094 407.980469 410.34375 404.003906 410.34375 399.210938 C 410.34375 394.304688 406.488281 390.445312 401.582031 390.445312 Z M 401.582031 390.445312 " fill-opacity="1" fill-rule="nonzero"/><path fill="#000000" d="M 457.445312 359.234375 C 462.234375 359.234375 466.207031 355.261719 466.207031 350.46875 C 466.207031 345.675781 462.234375 341.703125 457.445312 341.703125 L 436.875 341.703125 C 432.082031 341.703125 428.109375 345.675781 428.109375 350.46875 L 428.109375 399.328125 C 428.109375 404.121094 432.082031 408.097656 436.875 408.097656 L 457.445312 408.097656 C 462.234375 408.097656 466.207031 404.121094 466.207031 399.328125 C 466.207031 394.535156 462.234375 390.5625 457.445312 390.5625 L 445.640625 390.5625 L 445.640625 383.664062 L 455.925781 383.664062 C 460.714844 383.664062 464.691406 379.691406 464.691406 374.898438 C 464.691406 370.105469 460.714844 366.132812 455.925781 366.132812 L 445.640625 366.132812 L 445.640625 359.234375 Z M 457.445312 359.234375 " fill-opacity="1" fill-rule="nonzero"/><path fill="#000000" d="M 592.078125 359.234375 C 596.867188 359.234375 600.839844 355.261719 600.839844 350.46875 C 600.839844 345.675781 596.867188 341.703125 592.078125 341.703125 L 571.507812 341.703125 C 566.714844 341.703125 562.742188 345.675781 562.742188 350.46875 L 562.742188 399.328125 C 562.742188 404.121094 566.714844 408.097656 571.507812 408.097656 L 592.078125 408.097656 C 596.867188 408.097656 600.839844 404.121094 600.839844 399.328125 C 600.839844 394.535156 596.867188 390.5625 592.078125 390.5625 L 580.273438 390.5625 L 580.273438 383.664062 L 590.558594 383.664062 C 595.347656 383.664062 599.324219 379.691406 599.324219 374.898438 C 599.324219 370.105469 595.347656 366.132812 590.558594 366.132812 L 580.273438 366.132812 L 580.273438 359.234375 Z M 592.078125 359.234375 " fill-opacity="1" fill-rule="nonzero"/><path fill="#000000" d="M 537.5 365.898438 L 522.773438 365.898438 C 517.980469 365.898438 514.007812 369.871094 514.007812 374.664062 C 514.007812 379.457031 517.980469 383.433594 522.773438 383.433594 L 526.980469 383.433594 C 525.34375 387.171875 522.1875 390.5625 516.230469 390.5625 C 507.464844 390.5625 500.335938 383.433594 500.335938 374.664062 C 500.335938 365.898438 507.464844 358.769531 516.230469 358.769531 C 519.382812 358.769531 522.421875 359.703125 525.109375 361.457031 C 529.085938 364.144531 534.578125 363.09375 537.265625 359.117188 C 539.953125 355.144531 538.902344 349.652344 534.925781 346.960938 C 529.433594 343.222656 522.890625 341.234375 516.230469 341.234375 C 497.761719 341.234375 482.804688 356.195312 482.804688 374.664062 C 482.804688 393.132812 497.761719 408.097656 516.230469 408.097656 C 533.875 408.097656 546.265625 394.417969 546.265625 374.664062 C 546.265625 369.757812 542.289062 365.898438 537.5 365.898438 Z M 537.5 365.898438 " fill-opacity="1" fill-rule="nonzero"/><path fill="#000000" d="M 220.199219 385.535156 C 216.460938 382.378906 210.96875 382.964844 207.8125 386.589844 C 207.460938 387.054688 207.109375 387.40625 206.761719 387.757812 C 204.773438 389.511719 202.203125 390.445312 199.046875 390.445312 C 190.28125 390.445312 183.152344 383.316406 183.152344 374.546875 C 183.152344 365.78125 190.28125 358.652344 199.046875 358.652344 C 202.203125 358.652344 205.242188 359.585938 207.929688 361.339844 C 211.902344 364.027344 217.394531 362.976562 220.082031 359.003906 C 222.769531 355.027344 221.71875 349.535156 217.746094 346.84375 C 212.253906 343.105469 205.707031 341.117188 199.046875 341.117188 C 180.582031 341.117188 165.621094 356.078125 165.621094 374.546875 C 165.621094 393.015625 180.582031 407.980469 199.046875 407.980469 C 206.527344 407.980469 213.1875 405.523438 218.328125 400.847656 C 219.382812 399.914062 220.316406 398.976562 221.25 397.808594 C 224.289062 394.1875 223.824219 388.691406 220.199219 385.535156 Z M 220.199219 385.535156 " fill-opacity="1" fill-rule="nonzero"/><path fill="#000000" d="M 269.753906 341.234375 C 251.285156 341.234375 236.328125 356.195312 236.328125 374.664062 C 236.328125 393.132812 251.285156 408.097656 269.753906 408.097656 C 288.21875 408.097656 303.175781 393.132812 303.175781 374.664062 C 303.175781 356.195312 288.21875 341.234375 269.753906 341.234375 Z M 269.753906 390.445312 C 260.988281 390.445312 253.859375 383.316406 253.859375 374.546875 C 253.859375 365.78125 260.988281 358.652344 269.753906 358.652344 C 278.515625 358.652344 285.644531 365.78125 285.644531 374.546875 C 285.644531 383.316406 278.515625 390.445312 269.753906 390.445312 Z M 269.753906 390.445312 " fill-opacity="1" fill-rule="nonzero"/><g clip-path="url(#19ebecb587)"><path fill="#000000" d="M 672.949219 435.097656 L 681.363281 412.65625 C 683.234375 407.511719 682.53125 401.785156 679.496094 397.226562 C 676.339844 392.667969 671.195312 389.976562 665.703125 389.976562 L 637.304688 389.976562 L 637.304688 329.898438 C 637.304688 321.128906 630.175781 314 621.410156 314 L 596.867188 314 L 596.867188 150.703125 C 596.867188 145.914062 592.894531 141.9375 588.101562 141.9375 C 583.3125 141.9375 579.335938 145.914062 579.335938 150.703125 L 579.335938 314 L 558.769531 314 L 558.769531 94.246094 C 558.769531 88.519531 555.144531 83.261719 549.652344 81.390625 C 515.878906 69.351562 464.105469 60.347656 426.589844 54.972656 C 397.957031 50.765625 368.855469 50.765625 340.105469 54.972656 C 302.59375 60.464844 250.703125 69.351562 217.042969 81.390625 C 211.550781 83.375 207.929688 88.519531 207.929688 94.246094 L 207.929688 314 L 187.242188 314 L 187.242188 63.039062 C 187.242188 61.867188 187.945312 60.816406 189.113281 60.347656 C 229.316406 46.671875 289.503906 36.386719 332.976562 30.074219 C 366.402344 25.28125 400.179688 25.28125 433.601562 30.074219 C 477.078125 36.386719 537.265625 46.671875 577.46875 60.347656 C 578.636719 60.699219 579.335938 61.753906 579.335938 63.039062 L 579.335938 109.675781 C 579.335938 114.46875 583.3125 118.445312 588.101562 118.445312 C 592.894531 118.445312 596.867188 114.46875 596.867188 109.675781 L 596.867188 63.039062 C 596.867188 54.269531 591.375 46.554688 583.078125 43.75 C 541.589844 29.722656 480.351562 19.085938 436.171875 12.777344 C 401.113281 7.75 365.585938 7.75 330.523438 12.777344 C 286.230469 19.203125 224.875 29.722656 183.503906 43.867188 C 175.324219 46.671875 169.710938 54.386719 169.710938 63.15625 L 169.710938 314.117188 L 145.171875 314.117188 C 136.40625 314.117188 129.277344 321.246094 129.277344 330.011719 L 129.277344 390.09375 L 100.761719 390.09375 C 95.265625 390.09375 90.125 392.785156 86.96875 397.34375 C 83.8125 401.902344 83.113281 407.628906 85.097656 412.769531 L 93.515625 435.214844 L 85.097656 457.65625 C 83.230469 462.800781 83.929688 468.527344 86.96875 473.085938 C 90.125 477.644531 95.265625 480.332031 100.761719 480.332031 L 155.6875 480.332031 C 164.921875 480.332031 172.402344 472.851562 172.402344 463.617188 L 172.402344 435.449219 L 179.996094 435.449219 C 191.097656 465.371094 210.734375 492.257812 237.496094 513.0625 C 278.050781 544.621094 326.316406 567.765625 380.894531 581.792969 C 381.597656 582.027344 382.296875 582.027344 383.113281 582.027344 C 383.933594 582.027344 384.632812 581.910156 385.335938 581.792969 C 439.914062 567.765625 488.179688 544.738281 528.734375 513.0625 C 555.496094 492.257812 575.128906 465.371094 586.234375 435.449219 L 593.828125 435.449219 L 593.828125 463.617188 C 593.828125 472.851562 601.308594 480.332031 610.542969 480.332031 L 665.46875 480.332031 C 670.964844 480.332031 676.105469 477.644531 679.261719 473.085938 C 682.417969 468.527344 683.117188 462.800781 681.128906 457.65625 Z M 225.34375 96.9375 C 257.832031 85.832031 306.683594 77.414062 342.5625 72.273438 C 369.558594 68.414062 397.023438 68.414062 424.019531 72.273438 C 459.78125 77.414062 508.75 85.949219 541.238281 96.9375 L 541.238281 314 L 225.34375 314 Z M 154.988281 462.683594 L 101.929688 462.683594 L 109.992188 441.058594 C 111.394531 437.316406 111.394531 433.109375 109.992188 429.253906 L 101.929688 407.628906 L 129.160156 407.628906 L 129.160156 419.316406 C 129.160156 428.082031 136.289062 435.214844 145.054688 435.214844 L 154.871094 435.214844 L 154.871094 462.683594 Z M 517.980469 499.035156 C 479.882812 528.726562 434.539062 550.585938 383.230469 564.027344 C 331.925781 550.585938 286.582031 528.726562 248.480469 499.035156 C 226.160156 481.621094 209.332031 459.644531 199.046875 435.214844 L 223.941406 435.214844 C 233.40625 453.214844 246.960938 469.347656 263.910156 482.554688 C 297.097656 508.386719 336.601562 527.324219 381.246094 538.777344 C 381.945312 539.011719 382.648438 539.011719 383.464844 539.011719 C 384.285156 539.011719 384.984375 538.894531 385.6875 538.777344 C 430.328125 527.324219 469.714844 508.386719 503.023438 482.554688 C 519.96875 469.347656 533.523438 453.214844 542.992188 435.214844 L 567.882812 435.214844 C 557.132812 459.761719 540.304688 481.734375 517.980469 499.035156 Z M 333.914062 417.796875 C 329.121094 417.796875 325.148438 421.773438 325.148438 426.5625 C 325.148438 431.355469 329.121094 435.332031 333.914062 435.332031 L 522.421875 435.332031 C 514.476562 447.839844 504.308594 459.175781 491.921875 468.878906 C 461.183594 492.839844 424.601562 510.492188 383.230469 521.363281 C 341.859375 510.492188 305.28125 492.839844 274.542969 468.878906 C 262.15625 459.292969 251.988281 447.957031 244.042969 435.332031 L 293.125 435.332031 C 297.917969 435.332031 301.890625 431.355469 301.890625 426.5625 C 301.890625 421.773438 297.917969 417.796875 293.125 417.796875 L 146.6875 417.796875 L 146.6875 331.535156 L 619.65625 331.535156 L 619.65625 417.796875 Z M 656.472656 440.941406 L 664.535156 462.566406 L 611.476562 462.566406 L 611.476562 435.214844 L 621.292969 435.214844 C 630.058594 435.214844 637.1875 428.082031 637.1875 419.316406 L 637.1875 407.628906 L 664.417969 407.628906 L 656.355469 429.253906 C 654.953125 432.992188 654.953125 437.203125 656.472656 440.941406 Z M 656.472656 440.941406 " fill-opacity="1" fill-rule="nonzero"/></g><path fill="#000000" d="M 510.851562 217.449219 C 510.851562 217.449219 510.851562 166.953125 510.851562 166.953125 C 510.851562 166.953125 510.851562 166.953125 510.851562 166.835938 C 510.851562 166.71875 510.851562 166.601562 510.851562 166.484375 C 510.851562 166.25 510.851562 166.132812 510.851562 165.902344 C 510.503906 161.808594 508.046875 158.304688 504.191406 156.667969 L 383.933594 105.820312 C 378.90625 103.714844 373.0625 103.714844 368.039062 105.820312 L 247.898438 156.667969 C 243.808594 158.417969 241.121094 162.394531 241.121094 166.835938 C 241.121094 171.277344 243.808594 175.25 247.898438 177.003906 L 292.191406 195.824219 L 292.191406 245.035156 C 292.191406 252.984375 297.332031 259.996094 304.929688 262.335938 C 311.824219 264.4375 320.355469 267.128906 321.757812 267.476562 C 338.003906 272.269531 357.988281 275.191406 378.558594 275.191406 C 403.101562 275.191406 428.578125 270.984375 449.730469 260.464844 C 455.808594 257.425781 459.664062 251.113281 459.664062 244.332031 L 459.664062 195.824219 L 493.207031 181.679688 L 493.207031 217.566406 C 484.789062 221.074219 478.832031 229.253906 478.832031 238.957031 L 478.832031 256.023438 C 478.832031 268.761719 489.230469 279.167969 501.96875 279.167969 C 514.710938 279.167969 525.109375 268.761719 525.109375 256.023438 L 525.109375 238.957031 C 525.226562 229.136719 519.265625 220.957031 510.851562 217.449219 Z M 442.25 244.214844 C 442.25 244.449219 442.132812 244.683594 442.015625 244.683594 C 407.539062 261.75 358.105469 259.761719 326.785156 250.527344 C 325.847656 250.296875 319.773438 248.425781 310.304688 245.503906 C 310.070312 245.386719 309.957031 245.152344 309.957031 244.917969 L 309.957031 203.070312 L 368.273438 227.734375 C 370.84375 228.789062 373.53125 229.371094 376.21875 229.371094 C 378.90625 229.371094 381.597656 228.789062 384.167969 227.734375 L 442.484375 203.070312 Z M 383.464844 175.71875 L 462.117188 175.71875 L 377.15625 211.605469 C 376.453125 211.957031 375.636719 211.957031 374.933594 211.605469 L 268.933594 166.835938 L 374.933594 121.949219 C 375.636719 121.597656 376.453125 121.597656 377.15625 121.949219 L 462.703125 158.1875 L 383.347656 158.1875 C 378.558594 158.1875 374.582031 162.160156 374.582031 166.953125 C 374.699219 171.863281 378.558594 175.71875 383.464844 175.71875 Z M 507.695312 255.90625 C 507.695312 258.945312 505.242188 261.515625 502.085938 261.515625 C 498.933594 261.515625 496.476562 259.0625 496.476562 255.90625 L 496.476562 238.839844 C 496.476562 235.800781 498.933594 233.230469 502.085938 233.230469 C 505.125 233.230469 507.695312 235.683594 507.695312 238.839844 Z M 507.695312 255.90625 " fill-opacity="1" fill-rule="nonzero"/></svg>