<svg xmlns="http://www.w3.org/2000/svg" xmlns:xlink="http://www.w3.org/1999/xlink" width="940" zoomAndPan="magnify" viewBox="0 0 705 591.000005" height="788" preserveAspectRatio="xMidYMid meet" version="1.0"><defs><clipPath id="4a30495d0c"><path d="M 135 112 L 695.921875 112 L 695.921875 282 L 135 282 Z M 135 112 " clip-rule="nonzero"/></clipPath></defs><path fill="#d4b0b5" d="M 447.914062 296.273438 C 411.605469 302.929688 394.117188 343.238281 404.980469 377.253906 C 417.144531 415.359375 454.449219 435.71875 488.464844 413.832031 C 516.027344 396.101562 516.179688 364.921875 501.628906 349.125 C 488.4375 334.824219 462.933594 336.074219 457.382812 357.207031 C 465.34375 345.460938 481.144531 347.945312 487.429688 356.875 C 492.46875 364.039062 495.335938 380.738281 475.707031 394.359375 C 456.566406 407.652344 426.011719 409.859375 413.058594 373.914062 C 398.574219 333.757812 427.90625 306.953125 447.914062 296.273438 Z M 447.914062 296.273438 " fill-opacity="1" fill-rule="nonzero"/><path fill="#d4b0b5" d="M 675.886719 260.011719 C 661.898438 254.167969 647.542969 249.632812 632.96875 246.746094 C 562.691406 232.828125 493.894531 255.84375 432.007812 288.015625 C 334.265625 336.617188 250.023438 409.316406 144.386719 403.640625 C 89.710938 400.699219 36.261719 369.261719 31.050781 310.9375 C 26.242188 257.046875 70.714844 206.542969 134.167969 206.542969 C 232.988281 206.542969 248.699219 327.359375 156.707031 332.46875 C 141.453125 333.316406 128.117188 328.644531 118.421875 318.238281 C 102.222656 300.851562 105.503906 264.082031 128.917969 250.796875 C 97.320312 260.109375 91.867188 303.089844 111.699219 327.023438 C 123.199219 340.886719 140.464844 346.304688 158.023438 345.003906 C 255.320312 337.808594 240.890625 195.652344 134.167969 195.652344 C 59.441406 195.652344 9.65625 253.128906 14.3125 313.652344 C 19.484375 380.945312 80.035156 416.148438 141.914062 423.289062 C 251.859375 435.953125 343.332031 351.03125 442.839844 298.488281 C 502.800781 266.550781 567.214844 244.5625 635.355469 260.226562 C 647.664062 263.058594 659.578125 266.710938 671.128906 271.082031 C 672.640625 269.722656 674.296875 268.457031 676.097656 267.296875 C 675.816406 265.042969 675.542969 262.789062 675.261719 260.535156 C 675.414062 260.335938 675.625 260.164062 675.886719 260.011719 Z M 675.886719 260.011719 " fill-opacity="1" fill-rule="evenodd"/><g clip-path="url(#4a30495d0c)"><path fill="#d4b0b5" d="M 689.3125 258.082031 C 687.691406 257.160156 686.070312 256.253906 684.445312 255.359375 C 652.601562 237.851562 619.230469 225.089844 587.316406 221.445312 C 533.335938 215.277344 488.957031 232.65625 440.265625 253.359375 C 403.539062 268.976562 349.175781 290.949219 309.792969 276.609375 C 292.976562 270.488281 278.828125 255.652344 271.585938 239.136719 C 221.058594 239.09375 199.882812 194.445312 194.421875 155.273438 C 193.332031 155.453125 192.238281 155.613281 191.140625 155.757812 C 180.152344 157.15625 168.890625 156.472656 160.492188 154.03125 C 153.261719 151.9375 145.136719 147.84375 140.265625 142.078125 C 133.800781 134.429688 134.257812 121.496094 144.453125 118.109375 C 153.621094 115.65625 158.386719 125.007812 154.925781 129.949219 C 154.84375 124.808594 151.109375 120.933594 145.957031 122.644531 C 139.089844 124.917969 139.738281 134.035156 143.925781 138.988281 C 148.164062 144.003906 155.519531 147.609375 161.824219 149.4375 C 169.636719 151.707031 180.183594 152.335938 190.539062 151.011719 C 191.671875 150.867188 192.800781 150.699219 193.925781 150.511719 C 193.855469 149.496094 193.808594 148.496094 193.792969 147.519531 C 193.554688 134.429688 198.675781 113.992188 214.339844 112.429688 C 222.714844 111.597656 230.417969 117.644531 231.226562 126.085938 C 232.753906 141.949219 212.1875 151.394531 199.117188 154.347656 C 203.3125 185.339844 233.695312 236.050781 269.769531 234.457031 C 262.953125 214.53125 265.128906 178.214844 288.953125 170.902344 C 298.710938 167.910156 309.742188 171.179688 315.566406 179.742188 C 328.582031 198.875 306.507812 225.59375 289.523438 234.074219 C 285.269531 236.199219 280.898438 237.648438 276.554688 238.46875 C 283.417969 253.148438 296.652344 264.035156 311.757812 269.53125 C 349.640625 283.324219 402.582031 262.332031 437.929688 247.296875 C 487.460938 226.242188 532.949219 210.410156 587.859375 216.6875 C 620.445312 220.40625 654.410156 233.375 686.75 251.160156 C 688.757812 252.261719 691.980469 254.175781 696.085938 256.738281 C 693.8125 257.371094 691.515625 257.785156 689.3125 258.082031 Z M 274.675781 233.945312 C 278.921875 233.25 283.214844 231.882812 287.386719 229.800781 C 300.386719 223.390625 320.25 200.886719 309.816406 185.542969 C 305.453125 179.132812 297.132812 176.785156 289.851562 179.019531 C 269.890625 185.148438 269.210938 217.695312 274.675781 233.945312 Z M 198.578125 147.441406 C 198.589844 148.136719 198.617188 148.835938 198.65625 149.546875 C 208.375 147.238281 226.546875 139.523438 225.378906 127.359375 C 224.84375 121.800781 219.703125 117.859375 214.210938 118.40625 C 202 119.621094 198.398438 137.796875 198.578125 147.441406 Z M 198.578125 147.441406 " fill-opacity="1" fill-rule="nonzero"/></g></svg>