<svg xmlns="http://www.w3.org/2000/svg" xmlns:xlink="http://www.w3.org/1999/xlink" width="1080" zoomAndPan="magnify" viewBox="0 0 810 809.999993" height="1080" preserveAspectRatio="xMidYMid meet" version="1.0"><path fill="#d4b0b5" d="M 454.628906 316.183594 C 473.167969 289.859375 471.433594 252.121094 443.296875 225.058594 C 415.160156 198 367.9375 198.597656 338.941406 237.765625 C 309.484375 277.566406 310.875 346.246094 354.703125 388.492188 C 398.546875 430.746094 471.332031 427.878906 513.804688 366.03125 C 555.246094 305.679688 550.335938 205.882812 486.804688 144.792969 C 423.339844 83.769531 316.152344 83.734375 248.632812 171.507812 C 178.558594 262.597656 179.332031 423.367188 282.054688 522.460938 C 347.71875 585.835938 642.449219 659.175781 809.714844 521.210938 L 809.785156 519.269531 C 631.722656 659.6875 354.945312 559.054688 295.472656 501.6875 C 202.429688 411.9375 201.347656 266.277344 264.640625 183.4375 C 325.839844 103.335938 423.421875 103.148438 481.246094 158.761719 C 539.132812 214.429688 543.476562 305.367188 505.675781 360.234375 C 467.015625 416.347656 400.910156 418.855469 361.113281 380.515625 C 321.335938 342.171875 320 279.828125 346.710938 243.632812 C 373.027344 207.96875 415.976562 207.367188 441.570312 231.992188 C 467.167969 256.628906 468.746094 290.386719 451.855469 314.320312 C 434.808594 338.5 435.871094 342.789062 454.617188 316.175781 Z M 454.628906 316.183594 " fill-opacity="1" fill-rule="evenodd"/><path fill="#d4b0b5" d="M 270.617188 653.410156 C 273.242188 669.445312 262.683594 689.054688 243.9375 695.0625 C 225.210938 701.054688 203.941406 690.34375 199.390625 666.234375 C 194.773438 641.734375 210.480469 610.949219 239.679688 601.433594 C 268.984375 591.90625 301.566406 609.300781 307.230469 646.816406 C 312.742188 683.390625 288.382812 727.5 246.015625 740.960938 C 203.835938 754.367188 155.394531 730.625 144.0625 676.210938 C 132.320312 619.6875 167.769531 547.039062 236.195312 524.5 C 280.160156 510.007812 314.664062 517.390625 347.230469 545.328125 L 338.355469 555.664062 C 308.777344 530.476562 277.53125 523.828125 237.722656 536.929688 C 175.734375 557.3125 143.410156 623.039062 153.898438 674.355469 C 164.042969 723.960938 208.113281 745.664062 246.566406 733.421875 C 285.171875 721.144531 307.316406 680.917969 302.238281 647.640625 C 297.035156 613.574219 267.441406 597.828125 240.847656 606.484375 C 214.34375 615.105469 200.042969 643.039062 204.199219 665.308594 C 208.300781 687.238281 227.648438 697.007812 244.675781 691.546875 C 261.757812 686.085938 271.355469 668.230469 268.949219 653.632812 C 266.53125 638.902344 267.972656 637.183594 270.613281 653.410156 Z M 270.617188 653.410156 " fill-opacity="1" fill-rule="evenodd"/><path fill="#d4b0b5" d="M 498.457031 641.171875 C 508.945312 642.613281 519.175781 653.003906 519.382812 665.914062 C 519.605469 678.808594 508.910156 690.089844 493.050781 688.304688 C 476.929688 686.484375 460.691406 670.6875 460.277344 650.546875 C 459.847656 630.355469 476.792969 613.269531 501.21875 616.945312 C 525.0625 620.515625 547.945312 644.296875 548.359375 673.453125 C 548.769531 702.488281 524.890625 728.277344 488.859375 724.894531 C 451.4375 721.390625 412.863281 685.164062 411.695312 637.925781 C 410.941406 607.570312 422.011719 587.363281 445.546875 572.320312 L 450.304688 579.875 C 429.050781 593.578125 419.042969 611.878906 419.710938 639.351562 C 420.761719 682.15625 455.609375 715.089844 489.5625 718.386719 C 522.351562 721.582031 544.152344 698.125 543.777344 671.652344 C 543.378906 645.089844 522.488281 623.453125 500.808594 620.226562 C 478.609375 616.929688 463.246094 632.449219 463.625 650.789062 C 464 669.074219 478.714844 683.429688 493.375 685.09375 C 507.792969 686.761719 517.527344 676.507812 517.339844 664.765625 C 517.132812 653.019531 507.8125 643.558594 498.285156 642.253906 C 488.652344 640.929688 487.847656 639.710938 498.457031 641.171875 Z M 498.457031 641.171875 " fill-opacity="1" fill-rule="evenodd"/><path fill="#d4b0b5" d="M 575.527344 537.757812 C 571.148438 531.816406 571.390625 521.6875 577.777344 515.386719 C 584.144531 509.101562 594.996094 509.050781 601.808594 517.859375 C 608.726562 526.820312 608.695312 542.53125 598.789062 552.421875 C 588.847656 562.328125 572.042969 562.019531 562.015625 547.992188 C 552.230469 534.324219 553.039062 511.4375 567.476562 497.238281 C 581.84375 483.105469 606.410156 482.710938 622.21875 502.40625 C 638.632812 522.855469 639.199219 559.582031 616.058594 582.847656 C 601.191406 597.785156 585.65625 601.925781 566.6875 597.339844 L 568.164062 591.3125 C 585.363281 595.417969 599.421875 591.640625 612.882812 578.128906 C 633.859375 557.078125 633.449219 523.800781 618.597656 505.1875 C 604.265625 487.195312 581.894531 487.519531 568.796875 500.414062 C 555.648438 513.34375 554.945312 534.207031 563.871094 546.636719 C 573.003906 559.34375 588.265625 559.601562 597.277344 550.621094 C 606.273438 541.65625 606.324219 527.390625 600.039062 519.234375 C 593.859375 511.199219 583.988281 511.230469 578.1875 516.96875 C 572.386719 522.703125 572.164062 531.921875 576.144531 537.332031 C 580.164062 542.789062 579.9375 543.785156 575.527344 537.761719 Z M 575.527344 537.757812 " fill-opacity="1" fill-rule="evenodd"/><path fill="#d4b0b5" d="M 395.09375 369.882812 C 385.394531 359.566406 371.746094 324.125 372.621094 304.085938 C 373.941406 273.867188 389.753906 270.625 405.132812 271.070312 C 425.734375 271.652344 430.644531 276.890625 429.886719 292.121094 C 428.621094 317.375 380.777344 349.433594 395.09375 369.882812 Z M 395.09375 369.882812 " fill-opacity="1" fill-rule="evenodd"/><path fill="#d4b0b5" d="M 289.042969 386.632812 C 281.765625 406.515625 306.074219 460.34375 325.367188 481.960938 C 353.949219 513.964844 378.996094 510.035156 394.566406 495.628906 C 415.203125 476.515625 415.734375 466.453125 401.863281 450.488281 C 378.53125 423.617188 292.457031 423.304688 289.042969 386.632812 Z M 289.042969 386.632812 " fill-opacity="1" fill-rule="evenodd"/><path fill="#d4b0b5" d="M 285.144531 153.542969 C 297.089844 146.144531 319.390625 115.632812 323.75 96.316406 C 330.257812 67.519531 317.984375 54.558594 303.5625 51.125 C 284.371094 46.574219 262.757812 56.601562 275.132812 64.484375 C 299.734375 80.140625 304.179688 137.558594 285.144531 153.542969 Z M 285.144531 153.542969 " fill-opacity="1" fill-rule="evenodd"/><path fill="#d4b0b5" d="M 247.261719 175.4375 C 255.8125 170.097656 271.742188 148.101562 274.867188 134.160156 C 279.5 113.402344 270.730469 104.042969 260.429688 101.570312 C 246.714844 98.289062 231.261719 105.519531 240.121094 111.203125 C 257.699219 122.5 260.875 163.914062 247.261719 175.4375 Z M 247.261719 175.4375 " fill-opacity="1" fill-rule="evenodd"/><path fill="#d4b0b5" d="M 145.0625 651.90625 C 147.15625 657.984375 146.058594 675.429688 141.800781 683.738281 C 135.417969 696.238281 126.96875 697.320312 120.722656 694.230469 C 112.429688 690.160156 107.8125 680.117188 114.609375 680.90625 C 128.207031 682.5 147.140625 663.082031 145.066406 651.90625 Z M 145.0625 651.90625 " fill-opacity="1" fill-rule="evenodd"/><path fill="#d4b0b5" d="M 603.429688 491.679688 C 599.5 491.09375 590.367188 485.804688 587.15625 481.511719 C 582.519531 475.28125 584.183594 470.953125 587.328125 468.671875 C 591.496094 465.648438 597.816406 465.734375 595.667969 468.828125 C 591.359375 475.074219 596.683594 489.6875 603.429688 491.679688 Z M 603.429688 491.679688 " fill-opacity="1" fill-rule="evenodd"/><path fill="#d4b0b5" d="M 185.511719 413.890625 C 157.273438 418.921875 82.03125 403.175781 49.175781 380.050781 C 0.234375 345.621094 1.007812 309.480469 17.984375 284.753906 C 40.660156 251.734375 54.480469 249.125 79.011719 266.089844 C 120.160156 294.542969 134.875 415.597656 185.515625 413.886719 Z M 185.511719 413.890625 " fill-opacity="1" fill-rule="evenodd"/><path fill="#d4b0b5" d="M 230.777344 490.460938 C 213.765625 506.480469 155.074219 529.195312 121.992188 527.90625 C 72.605469 525.984375 56.898438 500.589844 57.601562 475.882812 C 58.527344 443.019531 66.921875 435.101562 91.453125 435.925781 C 132.5 437.335938 196.941406 514.171875 230.78125 490.460938 Z M 230.777344 490.460938 " fill-opacity="1" fill-rule="evenodd"/><path fill="#d4b0b5" d="M 225.917969 191.628906 C 225.917969 186.234375 221.558594 181.875 216.183594 181.875 C 210.8125 181.875 206.453125 186.234375 206.453125 191.628906 C 206.453125 197.019531 210.8125 201.378906 216.183594 201.378906 C 221.558594 201.378906 225.917969 197.019531 225.917969 191.628906 Z M 225.917969 191.628906 " fill-opacity="1" fill-rule="evenodd"/><path fill="#d4b0b5" d="M 208.511719 218.574219 C 208.511719 213.183594 204.152344 208.824219 198.78125 208.824219 C 193.40625 208.824219 189.046875 213.183594 189.046875 218.574219 C 189.046875 223.96875 193.40625 228.328125 198.78125 228.328125 C 204.152344 228.328125 208.511719 223.96875 208.511719 218.574219 Z M 208.511719 218.574219 " fill-opacity="1" fill-rule="evenodd"/><path fill="#d4b0b5" d="M 204.183594 251.953125 C 204.183594 246.5625 199.824219 242.199219 194.453125 242.199219 C 189.078125 242.199219 184.71875 246.5625 184.71875 251.953125 C 184.71875 257.34375 189.078125 261.707031 194.453125 261.707031 C 199.824219 261.707031 204.183594 257.34375 204.183594 251.953125 Z M 204.183594 251.953125 " fill-opacity="1" fill-rule="evenodd"/><path fill="#d4b0b5" d="M 456.417969 727.527344 C 453.550781 730.566406 453.6875 735.355469 456.707031 738.207031 C 459.730469 741.058594 464.5 740.917969 467.367188 737.863281 C 470.234375 734.824219 470.117188 730.050781 467.09375 727.199219 C 464.054688 724.332031 459.285156 724.488281 456.417969 727.527344 Z M 456.417969 727.527344 " fill-opacity="1" fill-rule="evenodd"/><path fill="#d4b0b5" d="M 482.398438 738.90625 C 479.535156 741.945312 479.671875 746.738281 482.691406 749.585938 C 485.714844 752.4375 490.484375 752.285156 493.351562 749.246094 C 496.21875 746.207031 496.097656 741.433594 493.0625 738.5625 C 490.039062 735.714844 485.265625 735.867188 482.398438 738.90625 Z M 482.398438 738.90625 " fill-opacity="1" fill-rule="evenodd"/><path fill="#d4b0b5" d="M 508.476562 733.359375 C 505.609375 736.398438 505.726562 741.171875 508.75 744.023438 C 511.789062 746.890625 516.558594 746.734375 519.425781 743.695312 C 522.292969 740.65625 522.15625 735.867188 519.136719 733.015625 C 516.113281 730.167969 511.339844 730.304688 508.476562 733.359375 Z M 508.476562 733.359375 " fill-opacity="1" fill-rule="evenodd"/><path fill="#d4b0b5" d="M 77.894531 533.066406 C 75.027344 536.105469 75.164062 540.894531 78.1875 543.746094 C 81.207031 546.597656 85.980469 546.460938 88.847656 543.402344 C 91.714844 540.363281 91.59375 535.589844 88.570312 532.742188 C 85.535156 529.871094 80.761719 530.027344 77.894531 533.066406 Z M 77.894531 533.066406 " fill-opacity="1" fill-rule="evenodd"/><path fill="#d4b0b5" d="M 103.878906 544.449219 C 101.011719 547.488281 101.148438 552.277344 104.171875 555.128906 C 107.191406 557.976562 111.964844 557.824219 114.832031 554.785156 C 117.699219 551.746094 117.578125 546.972656 114.539062 544.105469 C 111.515625 541.253906 106.746094 541.410156 103.878906 544.449219 Z M 103.878906 544.449219 " fill-opacity="1" fill-rule="evenodd"/><path fill="#d4b0b5" d="M 129.953125 538.914062 C 127.085938 541.953125 127.207031 546.726562 130.226562 549.574219 C 133.269531 552.441406 138.039062 552.289062 140.90625 549.25 C 143.773438 546.210938 143.632812 541.417969 140.613281 538.570312 C 137.589844 535.722656 132.820312 535.859375 129.953125 538.914062 Z M 129.953125 538.914062 " fill-opacity="1" fill-rule="evenodd"/><path fill="#d4b0b5" d="M 645.457031 541.324219 C 648.875 542.492188 652.546875 540.773438 653.664062 537.476562 C 654.777344 534.179688 652.925781 530.574219 649.507812 529.40625 C 646.109375 528.238281 642.4375 529.972656 641.320312 533.269531 C 640.1875 536.546875 642.039062 540.152344 645.457031 541.324219 Z M 645.457031 541.324219 " fill-opacity="1" fill-rule="evenodd"/><path fill="#d4b0b5" d="M 644.835938 517.523438 C 648.25 518.675781 651.925781 516.957031 653.039062 513.660156 C 654.15625 510.382812 652.300781 506.757812 648.886719 505.609375 C 645.488281 504.441406 641.8125 506.160156 640.699219 509.453125 C 639.566406 512.734375 641.421875 516.355469 644.835938 517.523438 Z M 644.835938 517.523438 " fill-opacity="1" fill-rule="evenodd"/><path fill="#d4b0b5" d="M 631.019531 499.417969 C 634.4375 500.585938 638.109375 498.851562 639.226562 495.570312 C 640.339844 492.273438 638.488281 488.667969 635.070312 487.5 C 631.671875 486.332031 628 488.050781 626.882812 491.347656 C 625.75 494.644531 627.605469 498.25 631.019531 499.417969 Z M 631.019531 499.417969 " fill-opacity="1" fill-rule="evenodd"/><path fill="#d4b0b5" d="M 7.40625 356.195312 C 3.511719 357.226562 1.054688 361.246094 1.878906 365.210938 C 2.722656 369.195312 6.582031 371.648438 10.515625 370.652344 C 14.480469 369.675781 16.988281 365.589844 16.109375 361.570312 C 15.214844 357.570312 11.320312 355.164062 7.40625 356.195312 Z M 7.40625 356.195312 " fill-opacity="1" fill-rule="evenodd"/><path fill="#d4b0b5" d="M 22.167969 379.828125 C 18.132812 380.789062 15.59375 384.890625 16.484375 388.996094 C 17.378906 393.132812 21.394531 395.742188 25.480469 394.832031 C 29.585938 393.90625 32.175781 389.734375 31.234375 385.5625 C 30.289062 381.40625 26.21875 378.847656 22.167969 379.828125 Z M 22.167969 379.828125 " fill-opacity="1" fill-rule="evenodd"/><path fill="#d4b0b5" d="M 47.386719 389.988281 C 43.164062 390.933594 40.539062 395.140625 41.515625 399.382812 C 42.496094 403.65625 46.734375 406.402344 51.027344 405.492188 C 55.335938 404.566406 58.015625 400.308594 56.984375 396 C 55.953125 391.707031 51.644531 389.011719 47.386719 389.988281 Z M 47.386719 389.988281 " fill-opacity="1" fill-rule="evenodd"/><path fill="#d4b0b5" d="M 139.296875 714.304688 C 135.332031 715.730469 133.203125 720.058594 134.542969 723.957031 C 135.898438 727.851562 140.207031 729.863281 144.171875 728.417969 C 148.136719 726.992188 150.265625 722.683594 148.925781 718.769531 C 147.589844 714.871094 143.28125 712.878906 139.296875 714.304688 Z M 139.296875 714.304688 " fill-opacity="1" fill-rule="evenodd"/><path fill="#d4b0b5" d="M 158.320312 736.09375 C 154.355469 737.519531 152.226562 741.847656 153.566406 745.746094 C 154.921875 749.640625 159.214844 751.632812 163.195312 750.207031 C 167.164062 748.785156 169.289062 744.457031 167.953125 740.558594 C 166.613281 736.660156 162.304688 734.652344 158.320312 736.09375 Z M 158.320312 736.09375 " fill-opacity="1" fill-rule="evenodd"/><path fill="#d4b0b5" d="M 185.355469 747.941406 C 181.390625 749.386719 179.261719 753.695312 180.601562 757.609375 C 181.9375 761.507812 186.246094 763.5 190.230469 762.074219 C 194.195312 760.648438 196.324219 756.320312 194.984375 752.421875 C 193.628906 748.527344 189.320312 746.515625 185.355469 747.941406 Z M 185.355469 747.941406 " fill-opacity="1" fill-rule="evenodd"/></svg>