<svg xmlns="http://www.w3.org/2000/svg" xmlns:xlink="http://www.w3.org/1999/xlink" width="1080" zoomAndPan="magnify" viewBox="0 0 810 809.999993" height="1080" preserveAspectRatio="xMidYMid meet" version="1.0"><path fill="#d4b0b5" d="M 355.371094 316.183594 C 336.832031 289.859375 338.566406 252.121094 366.703125 225.058594 C 394.839844 198 442.0625 198.597656 471.058594 237.765625 C 500.515625 277.566406 499.125 346.246094 455.296875 388.492188 C 411.453125 430.746094 338.667969 427.878906 296.195312 366.03125 C 254.753906 305.679688 259.664062 205.882812 323.195312 144.792969 C 386.660156 83.769531 493.847656 83.734375 561.367188 171.507812 C 631.441406 262.597656 630.667969 423.367188 527.945312 522.460938 C 462.28125 585.835938 167.550781 659.175781 0.285156 521.210938 L 0.214844 519.269531 C 178.277344 659.6875 455.054688 559.054688 514.527344 501.6875 C 607.570312 411.9375 608.652344 266.277344 545.359375 183.4375 C 484.160156 103.335938 386.578125 103.148438 328.753906 158.761719 C 270.867188 214.429688 266.523438 305.367188 304.324219 360.234375 C 342.984375 416.347656 409.089844 418.855469 448.886719 380.515625 C 488.664062 342.171875 490 279.828125 463.289062 243.632812 C 436.972656 207.96875 394.023438 207.367188 368.429688 231.992188 C 342.832031 256.628906 341.253906 290.386719 358.144531 314.320312 C 375.191406 338.5 374.125 342.789062 355.382812 316.175781 Z M 355.371094 316.183594 " fill-opacity="1" fill-rule="evenodd"/><path fill="#d4b0b5" d="M 539.382812 653.410156 C 536.757812 669.445312 547.316406 689.054688 566.0625 695.0625 C 584.789062 701.054688 606.058594 690.34375 610.609375 666.234375 C 615.226562 641.734375 599.519531 610.949219 570.320312 601.433594 C 541.015625 591.90625 508.433594 609.300781 502.769531 646.816406 C 497.257812 683.390625 521.617188 727.5 563.984375 740.960938 C 606.164062 754.367188 654.605469 730.625 665.9375 676.210938 C 677.679688 619.6875 642.230469 547.039062 573.804688 524.5 C 529.839844 510.007812 495.335938 517.390625 462.769531 545.328125 L 471.644531 555.664062 C 501.222656 530.476562 532.46875 523.828125 572.277344 536.929688 C 634.265625 557.3125 666.589844 623.039062 656.101562 674.355469 C 645.957031 723.960938 601.886719 745.664062 563.433594 733.421875 C 524.828125 721.144531 502.683594 680.917969 507.761719 647.640625 C 512.964844 613.574219 542.558594 597.828125 569.152344 606.484375 C 595.65625 615.105469 609.957031 643.039062 605.800781 665.308594 C 601.699219 687.238281 582.351562 697.007812 565.324219 691.546875 C 548.242188 686.085938 538.644531 668.230469 541.050781 653.632812 C 543.46875 638.902344 542.027344 637.183594 539.382812 653.410156 Z M 539.382812 653.410156 " fill-opacity="1" fill-rule="evenodd"/><path fill="#d4b0b5" d="M 311.542969 641.171875 C 301.054688 642.613281 290.824219 653.003906 290.617188 665.914062 C 290.394531 678.808594 301.089844 690.089844 316.949219 688.304688 C 333.070312 686.484375 349.308594 670.6875 349.722656 650.546875 C 350.152344 630.355469 333.207031 613.269531 308.78125 616.945312 C 284.9375 620.515625 262.054688 644.296875 261.640625 673.453125 C 261.230469 702.488281 285.109375 728.277344 321.140625 724.894531 C 358.5625 721.390625 397.136719 685.164062 398.304688 637.925781 C 399.058594 607.570312 387.988281 587.363281 364.453125 572.320312 L 359.695312 579.875 C 380.949219 593.578125 390.957031 611.878906 390.289062 639.351562 C 389.238281 682.15625 354.390625 715.089844 320.4375 718.386719 C 287.648438 721.582031 265.847656 698.125 266.222656 671.652344 C 266.621094 645.089844 287.511719 623.453125 309.191406 620.226562 C 331.390625 616.929688 346.753906 632.449219 346.375 650.789062 C 346 669.074219 331.285156 683.429688 316.625 685.09375 C 302.207031 686.761719 292.472656 676.507812 292.660156 664.765625 C 292.867188 653.019531 302.1875 643.558594 311.714844 642.253906 C 321.347656 640.929688 322.152344 639.710938 311.542969 641.171875 Z M 311.542969 641.171875 " fill-opacity="1" fill-rule="evenodd"/><path fill="#d4b0b5" d="M 234.472656 537.757812 C 238.851562 531.816406 238.609375 521.6875 232.222656 515.386719 C 225.855469 509.101562 215.003906 509.050781 208.191406 517.859375 C 201.273438 526.820312 201.304688 542.53125 211.210938 552.421875 C 221.152344 562.328125 237.957031 562.019531 247.984375 547.992188 C 257.769531 534.324219 256.960938 511.4375 242.523438 497.238281 C 228.15625 483.105469 203.589844 482.710938 187.78125 502.40625 C 171.367188 522.855469 170.800781 559.582031 193.941406 582.847656 C 208.808594 597.785156 224.34375 601.925781 243.3125 597.339844 L 241.835938 591.3125 C 224.636719 595.417969 210.578125 591.640625 197.117188 578.128906 C 176.140625 557.078125 176.550781 523.800781 191.402344 505.1875 C 205.734375 487.195312 228.105469 487.519531 241.203125 500.414062 C 254.351562 513.34375 255.054688 534.207031 246.128906 546.636719 C 236.996094 559.34375 221.734375 559.601562 212.722656 550.621094 C 203.726562 541.65625 203.675781 527.390625 209.960938 519.234375 C 216.140625 511.199219 226.011719 511.230469 231.8125 516.96875 C 237.613281 522.703125 237.835938 531.921875 233.855469 537.332031 C 229.835938 542.789062 230.0625 543.785156 234.472656 537.761719 Z M 234.472656 537.757812 " fill-opacity="1" fill-rule="evenodd"/><path fill="#d4b0b5" d="M 414.90625 369.882812 C 424.605469 359.566406 438.253906 324.125 437.378906 304.085938 C 436.058594 273.867188 420.246094 270.625 404.867188 271.070312 C 384.265625 271.652344 379.355469 276.890625 380.113281 292.121094 C 381.378906 317.375 429.222656 349.433594 414.90625 369.882812 Z M 414.90625 369.882812 " fill-opacity="1" fill-rule="evenodd"/><path fill="#d4b0b5" d="M 520.957031 386.632812 C 528.234375 406.515625 503.925781 460.34375 484.632812 481.960938 C 456.050781 513.964844 431.003906 510.035156 415.433594 495.628906 C 394.796875 476.515625 394.265625 466.453125 408.136719 450.488281 C 431.46875 423.617188 517.542969 423.304688 520.957031 386.632812 Z M 520.957031 386.632812 " fill-opacity="1" fill-rule="evenodd"/><path fill="#d4b0b5" d="M 524.855469 153.542969 C 512.910156 146.144531 490.609375 115.632812 486.25 96.316406 C 479.742188 67.519531 492.015625 54.558594 506.4375 51.125 C 525.628906 46.574219 547.242188 56.601562 534.867188 64.484375 C 510.265625 80.140625 505.820312 137.558594 524.855469 153.542969 Z M 524.855469 153.542969 " fill-opacity="1" fill-rule="evenodd"/><path fill="#d4b0b5" d="M 562.738281 175.4375 C 554.1875 170.097656 538.257812 148.101562 535.132812 134.160156 C 530.5 113.402344 539.269531 104.042969 549.570312 101.570312 C 563.285156 98.289062 578.738281 105.519531 569.878906 111.203125 C 552.300781 122.5 549.125 163.914062 562.738281 175.4375 Z M 562.738281 175.4375 " fill-opacity="1" fill-rule="evenodd"/><path fill="#d4b0b5" d="M 664.9375 651.90625 C 662.84375 657.984375 663.941406 675.429688 668.199219 683.738281 C 674.582031 696.238281 683.03125 697.320312 689.277344 694.230469 C 697.570312 690.160156 702.1875 680.117188 695.390625 680.90625 C 681.792969 682.5 662.859375 663.082031 664.933594 651.90625 Z M 664.9375 651.90625 " fill-opacity="1" fill-rule="evenodd"/><path fill="#d4b0b5" d="M 206.570312 491.679688 C 210.5 491.09375 219.632812 485.804688 222.84375 481.511719 C 227.480469 475.28125 225.816406 470.953125 222.671875 468.671875 C 218.5 465.648438 212.183594 465.734375 214.332031 468.828125 C 218.640625 475.074219 213.316406 489.6875 206.570312 491.679688 Z M 206.570312 491.679688 " fill-opacity="1" fill-rule="evenodd"/><path fill="#d4b0b5" d="M 624.488281 413.890625 C 652.726562 418.921875 727.96875 403.175781 760.824219 380.050781 C 809.765625 345.621094 808.992188 309.480469 792.015625 284.753906 C 769.339844 251.734375 755.519531 249.125 730.988281 266.089844 C 689.839844 294.542969 675.125 415.597656 624.484375 413.886719 Z M 624.488281 413.890625 " fill-opacity="1" fill-rule="evenodd"/><path fill="#d4b0b5" d="M 579.222656 490.460938 C 596.234375 506.480469 654.925781 529.195312 688.007812 527.90625 C 737.394531 525.984375 753.101562 500.589844 752.398438 475.882812 C 751.472656 443.019531 743.078125 435.101562 718.546875 435.925781 C 677.5 437.335938 613.058594 514.171875 579.21875 490.460938 Z M 579.222656 490.460938 " fill-opacity="1" fill-rule="evenodd"/><path fill="#d4b0b5" d="M 584.082031 191.628906 C 584.082031 186.234375 588.441406 181.875 593.816406 181.875 C 599.1875 181.875 603.546875 186.234375 603.546875 191.628906 C 603.546875 197.019531 599.1875 201.378906 593.816406 201.378906 C 588.441406 201.378906 584.082031 197.019531 584.082031 191.628906 Z M 584.082031 191.628906 " fill-opacity="1" fill-rule="evenodd"/><path fill="#d4b0b5" d="M 601.488281 218.574219 C 601.488281 213.183594 605.847656 208.824219 611.21875 208.824219 C 616.59375 208.824219 620.953125 213.183594 620.953125 218.574219 C 620.953125 223.96875 616.59375 228.328125 611.21875 228.328125 C 605.847656 228.328125 601.488281 223.96875 601.488281 218.574219 Z M 601.488281 218.574219 " fill-opacity="1" fill-rule="evenodd"/><path fill="#d4b0b5" d="M 605.816406 251.953125 C 605.816406 246.5625 610.175781 242.199219 615.546875 242.199219 C 620.921875 242.199219 625.28125 246.5625 625.28125 251.953125 C 625.28125 257.34375 620.921875 261.707031 615.546875 261.707031 C 610.175781 261.707031 605.816406 257.34375 605.816406 251.953125 Z M 605.816406 251.953125 " fill-opacity="1" fill-rule="evenodd"/><path fill="#d4b0b5" d="M 353.582031 727.527344 C 356.449219 730.566406 356.3125 735.355469 353.292969 738.207031 C 350.269531 741.058594 345.5 740.917969 342.632812 737.863281 C 339.765625 734.824219 339.882812 730.050781 342.90625 727.199219 C 345.945312 724.332031 350.714844 724.488281 353.582031 727.527344 Z M 353.582031 727.527344 " fill-opacity="1" fill-rule="evenodd"/><path fill="#d4b0b5" d="M 327.601562 738.90625 C 330.464844 741.945312 330.328125 746.738281 327.308594 749.585938 C 324.285156 752.4375 319.515625 752.285156 316.648438 749.246094 C 313.78125 746.207031 313.902344 741.433594 316.9375 738.5625 C 319.960938 735.714844 324.734375 735.867188 327.601562 738.90625 Z M 327.601562 738.90625 " fill-opacity="1" fill-rule="evenodd"/><path fill="#d4b0b5" d="M 301.523438 733.359375 C 304.390625 736.398438 304.273438 741.171875 301.25 744.023438 C 298.210938 746.890625 293.441406 746.734375 290.574219 743.695312 C 287.707031 740.65625 287.84375 735.867188 290.863281 733.015625 C 293.886719 730.167969 298.660156 730.304688 301.523438 733.359375 Z M 301.523438 733.359375 " fill-opacity="1" fill-rule="evenodd"/><path fill="#d4b0b5" d="M 732.105469 533.066406 C 734.972656 536.105469 734.835938 540.894531 731.8125 543.746094 C 728.792969 546.597656 724.019531 546.460938 721.152344 543.402344 C 718.285156 540.363281 718.40625 535.589844 721.429688 532.742188 C 724.464844 529.871094 729.238281 530.027344 732.105469 533.066406 Z M 732.105469 533.066406 " fill-opacity="1" fill-rule="evenodd"/><path fill="#d4b0b5" d="M 706.121094 544.449219 C 708.988281 547.488281 708.851562 552.277344 705.828125 555.128906 C 702.808594 557.976562 698.035156 557.824219 695.167969 554.785156 C 692.300781 551.746094 692.421875 546.972656 695.460938 544.105469 C 698.484375 541.253906 703.253906 541.410156 706.121094 544.449219 Z M 706.121094 544.449219 " fill-opacity="1" fill-rule="evenodd"/><path fill="#d4b0b5" d="M 680.046875 538.914062 C 682.914062 541.953125 682.792969 546.726562 679.773438 549.574219 C 676.730469 552.441406 671.960938 552.289062 669.09375 549.25 C 666.226562 546.210938 666.367188 541.417969 669.386719 538.570312 C 672.410156 535.722656 677.179688 535.859375 680.046875 538.914062 Z M 680.046875 538.914062 " fill-opacity="1" fill-rule="evenodd"/><path fill="#d4b0b5" d="M 164.542969 541.324219 C 161.125 542.492188 157.453125 540.773438 156.335938 537.476562 C 155.222656 534.179688 157.074219 530.574219 160.492188 529.40625 C 163.890625 528.238281 167.5625 529.972656 168.679688 533.269531 C 169.8125 536.546875 167.960938 540.152344 164.542969 541.324219 Z M 164.542969 541.324219 " fill-opacity="1" fill-rule="evenodd"/><path fill="#d4b0b5" d="M 165.164062 517.523438 C 161.75 518.675781 158.074219 516.957031 156.960938 513.660156 C 155.84375 510.382812 157.699219 506.757812 161.113281 505.609375 C 164.511719 504.441406 168.1875 506.160156 169.300781 509.453125 C 170.433594 512.734375 168.578125 516.355469 165.164062 517.523438 Z M 165.164062 517.523438 " fill-opacity="1" fill-rule="evenodd"/><path fill="#d4b0b5" d="M 178.980469 499.417969 C 175.5625 500.585938 171.890625 498.851562 170.773438 495.570312 C 169.660156 492.273438 171.511719 488.667969 174.929688 487.5 C 178.328125 486.332031 182 488.050781 183.117188 491.347656 C 184.25 494.644531 182.394531 498.25 178.980469 499.417969 Z M 178.980469 499.417969 " fill-opacity="1" fill-rule="evenodd"/><path fill="#d4b0b5" d="M 802.59375 356.195312 C 806.488281 357.226562 808.945312 361.246094 808.121094 365.210938 C 807.277344 369.195312 803.417969 371.648438 799.484375 370.652344 C 795.519531 369.675781 793.011719 365.589844 793.890625 361.570312 C 794.785156 357.570312 798.679688 355.164062 802.59375 356.195312 Z M 802.59375 356.195312 " fill-opacity="1" fill-rule="evenodd"/><path fill="#d4b0b5" d="M 787.832031 379.828125 C 791.867188 380.789062 794.40625 384.890625 793.511719 388.996094 C 792.621094 393.132812 788.605469 395.742188 784.519531 394.832031 C 780.414062 393.90625 777.824219 389.734375 778.765625 385.5625 C 779.710938 381.40625 783.78125 378.847656 787.832031 379.828125 Z M 787.832031 379.828125 " fill-opacity="1" fill-rule="evenodd"/><path fill="#d4b0b5" d="M 762.613281 389.988281 C 766.835938 390.933594 769.460938 395.140625 768.484375 399.382812 C 767.503906 403.65625 763.265625 406.402344 758.972656 405.492188 C 754.664062 404.566406 751.984375 400.308594 753.015625 396 C 754.046875 391.707031 758.355469 389.011719 762.613281 389.988281 Z M 762.613281 389.988281 " fill-opacity="1" fill-rule="evenodd"/><path fill="#d4b0b5" d="M 670.703125 714.304688 C 674.667969 715.730469 676.796875 720.058594 675.457031 723.957031 C 674.101562 727.851562 669.792969 729.863281 665.828125 728.417969 C 661.863281 726.992188 659.734375 722.683594 661.074219 718.769531 C 662.410156 714.871094 666.71875 712.878906 670.703125 714.304688 Z M 670.703125 714.304688 " fill-opacity="1" fill-rule="evenodd"/><path fill="#d4b0b5" d="M 651.679688 736.09375 C 655.644531 737.519531 657.773438 741.847656 656.433594 745.746094 C 655.078125 749.640625 650.785156 751.632812 646.804688 750.207031 C 642.835938 748.785156 640.710938 744.457031 642.046875 740.558594 C 643.386719 736.660156 647.695312 734.652344 651.679688 736.09375 Z M 651.679688 736.09375 " fill-opacity="1" fill-rule="evenodd"/><path fill="#d4b0b5" d="M 624.644531 747.941406 C 628.609375 749.386719 630.738281 753.695312 629.398438 757.609375 C 628.0625 761.507812 623.753906 763.5 619.769531 762.074219 C 615.804688 760.648438 613.675781 756.320312 615.015625 752.421875 C 616.371094 748.527344 620.679688 746.515625 624.644531 747.941406 Z M 624.644531 747.941406 " fill-opacity="1" fill-rule="evenodd"/></svg>