<svg xmlns="http://www.w3.org/2000/svg" xmlns:xlink="http://www.w3.org/1999/xlink" width="1640" zoomAndPan="magnify" viewBox="0 0 1230 693.000001" height="924" preserveAspectRatio="xMidYMid meet" version="1.0"><defs><clipPath id="72bb34906f"><path d="M 227 57 L 1229.113281 57 L 1229.113281 360 L 227 360 Z M 227 57 " clip-rule="nonzero"/></clipPath></defs><path fill="#ffffff" d="M 785.457031 386.710938 C 720.503906 398.628906 689.21875 470.792969 708.65625 531.691406 C 730.414062 599.90625 797.148438 636.359375 858.003906 597.179688 C 907.3125 565.433594 907.582031 509.613281 881.550781 481.332031 C 857.949219 455.734375 812.332031 457.964844 802.398438 495.800781 C 816.640625 474.769531 844.90625 479.222656 856.152344 495.210938 C 865.160156 508.035156 870.292969 537.929688 835.175781 562.3125 C 800.9375 586.109375 746.277344 590.0625 723.109375 525.710938 C 697.195312 453.816406 749.667969 405.832031 785.457031 386.710938 Z M 785.457031 386.710938 " fill-opacity="1" fill-rule="nonzero"/><path fill="#ffffff" d="M 1193.285156 321.792969 C 1168.253906 311.335938 1142.578125 303.214844 1116.503906 298.046875 C 990.78125 273.125 867.710938 314.335938 757.003906 371.929688 C 582.152344 458.9375 431.449219 589.089844 242.476562 578.929688 C 144.667969 573.664062 49.046875 517.386719 39.730469 412.960938 C 31.125 316.488281 110.683594 226.074219 224.195312 226.074219 C 400.980469 226.074219 429.078125 442.363281 264.519531 451.511719 C 237.226562 453.03125 213.375 444.664062 196.03125 426.035156 C 167.050781 394.910156 172.917969 329.085938 214.804688 305.296875 C 158.277344 321.96875 148.519531 398.914062 184.003906 441.765625 C 204.570312 466.582031 235.460938 476.28125 266.867188 473.953125 C 440.925781 461.070312 415.117188 206.570312 224.195312 206.570312 C 90.519531 206.570312 1.460938 309.46875 9.78125 417.824219 C 19.035156 538.300781 127.359375 601.324219 238.050781 614.105469 C 434.734375 636.777344 598.367188 484.746094 776.382812 390.675781 C 883.648438 333.503906 998.875 294.136719 1120.773438 322.179688 C 1142.792969 327.246094 1164.105469 333.789062 1184.769531 341.613281 C 1187.476562 339.179688 1190.433594 336.917969 1193.65625 334.835938 C 1193.160156 330.804688 1192.664062 326.765625 1192.164062 322.730469 C 1192.433594 322.375 1192.8125 322.066406 1193.285156 321.792969 Z M 1193.285156 321.792969 " fill-opacity="1" fill-rule="evenodd"/><g clip-path="url(#72bb34906f)"><path fill="#ffffff" d="M 1217.296875 318.339844 C 1214.402344 316.691406 1211.496094 315.0625 1208.589844 313.46875 C 1151.625 282.125 1091.925781 259.273438 1034.835938 252.75 C 938.273438 241.710938 858.878906 272.816406 771.777344 309.882812 C 706.074219 337.847656 608.824219 377.179688 538.375 351.507812 C 508.285156 340.546875 482.976562 313.988281 470.027344 284.421875 C 379.636719 284.34375 341.757812 204.410156 331.984375 134.28125 C 330.035156 134.605469 328.078125 134.890625 326.113281 135.152344 C 306.457031 137.652344 286.308594 136.433594 271.289062 132.058594 C 258.355469 128.3125 243.816406 120.980469 235.101562 110.660156 C 223.539062 96.96875 224.359375 73.8125 242.597656 67.746094 C 258.996094 63.355469 267.523438 80.097656 261.328125 88.945312 C 261.183594 79.742188 254.5 72.804688 245.285156 75.863281 C 232.996094 79.941406 234.160156 96.257812 241.648438 105.128906 C 249.234375 114.105469 262.394531 120.558594 273.671875 123.835938 C 287.644531 127.898438 306.515625 129.023438 325.039062 126.652344 C 327.0625 126.398438 329.085938 126.09375 331.09375 125.757812 C 330.96875 123.941406 330.890625 122.148438 330.863281 120.402344 C 330.433594 96.96875 339.597656 60.375 367.613281 57.582031 C 382.597656 56.09375 396.378906 66.917969 397.824219 82.03125 C 400.558594 110.425781 363.765625 127.335938 340.386719 132.625 C 347.890625 188.109375 402.242188 278.894531 466.773438 276.046875 C 454.582031 240.371094 458.472656 175.351562 501.089844 162.261719 C 518.550781 156.90625 538.28125 162.761719 548.703125 178.085938 C 571.988281 212.339844 532.492188 260.171875 502.117188 275.355469 C 494.503906 279.164062 486.683594 281.757812 478.910156 283.226562 C 491.191406 309.511719 514.863281 328.996094 541.882812 338.839844 C 609.65625 363.527344 704.363281 325.945312 767.59375 299.03125 C 856.203125 261.335938 937.578125 232.992188 1035.804688 244.230469 C 1094.101562 250.886719 1154.859375 274.109375 1212.71875 305.945312 C 1216.304688 307.921875 1222.074219 311.347656 1229.417969 315.933594 C 1225.347656 317.066406 1221.238281 317.808594 1217.296875 318.339844 Z M 475.550781 275.125 C 483.148438 273.886719 490.824219 271.4375 498.292969 267.710938 C 521.546875 256.234375 557.082031 215.945312 538.414062 188.472656 C 530.609375 177 515.726562 172.796875 502.703125 176.792969 C 466.988281 187.765625 465.773438 246.035156 475.550781 275.125 Z M 339.417969 120.261719 C 339.4375 121.503906 339.488281 122.757812 339.5625 124.03125 C 356.949219 119.898438 389.453125 106.085938 387.367188 84.3125 C 386.410156 74.355469 377.210938 67.300781 367.386719 68.277344 C 345.539062 70.457031 339.097656 102.996094 339.417969 120.261719 Z M 339.417969 120.261719 " fill-opacity="1" fill-rule="nonzero"/></g></svg>