<svg xmlns="http://www.w3.org/2000/svg" xmlns:xlink="http://www.w3.org/1999/xlink" width="1640" zoomAndPan="magnify" viewBox="0 0 1230 693.000001" height="924" preserveAspectRatio="xMidYMid meet" version="1.0"><defs><clipPath id="661535365d"><path d="M 0.886719 57 L 1003 57 L 1003 360 L 0.886719 360 Z M 0.886719 57 " clip-rule="nonzero"/></clipPath></defs><path fill="#ffffff" d="M 444.542969 386.710938 C 509.496094 398.628906 540.78125 470.792969 521.34375 531.691406 C 499.585938 599.90625 432.851562 636.359375 371.996094 597.179688 C 322.6875 565.433594 322.417969 509.613281 348.449219 481.332031 C 372.050781 455.734375 417.667969 457.964844 427.601562 495.800781 C 413.359375 474.769531 385.09375 479.222656 373.847656 495.210938 C 364.839844 508.035156 359.707031 537.929688 394.824219 562.3125 C 429.0625 586.109375 483.722656 590.0625 506.890625 525.710938 C 532.804688 453.816406 480.332031 405.832031 444.542969 386.710938 Z M 444.542969 386.710938 " fill-opacity="1" fill-rule="nonzero"/><path fill="#ffffff" d="M 36.714844 321.792969 C 61.746094 311.335938 87.421875 303.214844 113.496094 298.046875 C 239.21875 273.125 362.289062 314.335938 472.992188 371.929688 C 647.847656 458.9375 798.550781 589.089844 987.523438 578.929688 C 1085.328125 573.664062 1180.953125 517.386719 1190.269531 412.960938 C 1198.871094 316.488281 1119.316406 226.074219 1005.804688 226.074219 C 829.019531 226.074219 800.921875 442.363281 965.480469 451.511719 C 992.773438 453.03125 1016.625 444.664062 1033.96875 426.035156 C 1062.949219 394.910156 1057.082031 329.085938 1015.195312 305.296875 C 1071.722656 321.96875 1081.480469 398.914062 1045.996094 441.765625 C 1025.429688 466.582031 994.539062 476.28125 963.132812 473.953125 C 789.074219 461.070312 814.882812 206.570312 1005.804688 206.570312 C 1139.480469 206.570312 1228.539062 309.46875 1220.21875 417.824219 C 1210.964844 538.300781 1102.640625 601.324219 991.949219 614.105469 C 795.265625 636.777344 631.632812 484.746094 453.617188 390.675781 C 346.351562 333.503906 231.125 294.136719 109.226562 322.179688 C 87.207031 327.246094 65.894531 333.789062 45.226562 341.613281 C 42.523438 339.179688 39.566406 336.917969 36.34375 334.835938 C 36.839844 330.804688 37.335938 326.765625 37.835938 322.730469 C 37.566406 322.375 37.1875 322.066406 36.714844 321.792969 Z M 36.714844 321.792969 " fill-opacity="1" fill-rule="evenodd"/><g clip-path="url(#661535365d)"><path fill="#ffffff" d="M 12.703125 318.339844 C 15.597656 316.691406 18.503906 315.0625 21.410156 313.46875 C 78.375 282.125 138.074219 259.273438 195.164062 252.75 C 291.726562 241.710938 371.121094 272.816406 458.222656 309.882812 C 523.925781 337.847656 621.175781 377.179688 691.625 351.507812 C 721.714844 340.546875 747.023438 313.988281 759.972656 284.421875 C 850.363281 284.34375 888.242188 204.410156 898.015625 134.28125 C 899.964844 134.605469 901.921875 134.890625 903.886719 135.152344 C 923.542969 137.652344 943.691406 136.433594 958.710938 132.058594 C 971.644531 128.3125 986.183594 120.980469 994.898438 110.660156 C 1006.460938 96.96875 1005.640625 73.8125 987.402344 67.746094 C 971.003906 63.355469 962.476562 80.097656 968.667969 88.945312 C 968.816406 79.742188 975.5 72.804688 984.714844 75.863281 C 997.003906 79.941406 995.839844 96.257812 988.351562 105.128906 C 980.765625 114.105469 967.605469 120.558594 956.328125 123.835938 C 942.355469 127.898438 923.484375 129.023438 904.960938 126.652344 C 902.9375 126.398438 900.914062 126.09375 898.90625 125.757812 C 899.03125 123.941406 899.109375 122.148438 899.136719 120.402344 C 899.566406 96.96875 890.402344 60.375 862.386719 57.582031 C 847.402344 56.09375 833.621094 66.917969 832.175781 82.03125 C 829.441406 110.425781 866.234375 127.335938 889.613281 132.625 C 882.109375 188.109375 827.757812 278.894531 763.226562 276.046875 C 775.417969 240.371094 771.527344 175.351562 728.910156 162.261719 C 711.449219 156.90625 691.71875 162.761719 681.296875 178.085938 C 658.011719 212.339844 697.507812 260.171875 727.882812 275.355469 C 735.496094 279.164062 743.316406 281.757812 751.089844 283.226562 C 738.808594 309.511719 715.136719 328.996094 688.117188 338.839844 C 620.34375 363.527344 525.636719 325.945312 462.40625 299.03125 C 373.796875 261.335938 292.421875 232.992188 194.195312 244.230469 C 135.898438 250.886719 75.140625 274.109375 17.28125 305.945312 C 13.695312 307.921875 7.925781 311.347656 0.582031 315.933594 C 4.652344 317.066406 8.761719 317.808594 12.703125 318.339844 Z M 754.449219 275.125 C 746.851562 273.886719 739.175781 271.4375 731.707031 267.710938 C 708.453125 256.234375 672.917969 215.945312 691.585938 188.472656 C 699.390625 177 714.273438 172.796875 727.296875 176.792969 C 763.011719 187.765625 764.226562 246.035156 754.449219 275.125 Z M 890.582031 120.261719 C 890.5625 121.503906 890.511719 122.757812 890.4375 124.03125 C 873.050781 119.898438 840.546875 106.085938 842.632812 84.3125 C 843.589844 74.355469 852.789062 67.300781 862.613281 68.277344 C 884.460938 70.457031 890.902344 102.996094 890.582031 120.261719 Z M 890.582031 120.261719 " fill-opacity="1" fill-rule="nonzero"/></g></svg>